<?xml version="1.0" standalone="no"?>
<!DOCTYPE svg PUBLIC "-//W3C//DTD SVG 20010904//EN"
 "http://www.w3.org/TR/2001/REC-SVG-20010904/DTD/svg10.dtd">
<svg version="1.0" xmlns="http://www.w3.org/2000/svg"
 width="610.000000pt" height="610.000000pt" viewBox="0 0 610.000000 610.000000"
 preserveAspectRatio="xMidYMid meet">
<metadata>
Created by potrace 1.14, written by Peter Selinger 2001-2017
</metadata>
<g transform="translate(0.000000,610.000000) scale(0.100000,-0.100000)"
fill="#000000" stroke="none">
<path d="M559 5605 c-12 -25 -14 -201 -14 -1020 1 -545 6 -1244 13 -1555 23
-1119 25 -1307 9 -1288 -8 10 -16 16 -19 13 -2 -3 -5 3 -5 13 1 92 -14 117
-28 49 -4 -17 -10 -36 -14 -42 -3 -5 -11 -32 -17 -60 l-10 -50 -8 63 c-4 39
-12 65 -21 68 -8 3 -19 21 -25 40 -9 28 -15 33 -25 24 -11 -9 -17 -5 -29 17
l-15 28 -1 -32 c0 -17 -5 -35 -12 -39 -8 -5 -9 2 -5 24 6 31 -6 45 -16 20 -3
-7 -6 4 -6 25 -1 36 -21 55 -21 20 0 -14 -2 -15 -9 -5 -7 11 -9 11 -14 -1 -4
-10 -13 -13 -27 -10 -16 4 -18 8 -9 19 9 11 9 14 0 14 -6 0 -14 -7 -17 -15 -9
-21 -19 -19 -32 8 -8 17 -11 18 -11 5 -1 -22 -15 -23 -35 -2 -15 14 -16 13
-16 -9 0 -25 -26 -45 -32 -25 -6 16 -48 21 -48 5 -1 -6 -7 -1 -15 13 -13 22
-14 -32 -15 -442 0 -331 3 -469 11 -474 8 -4 7 -9 -2 -14 -10 -7 -10 -11 0
-24 7 -9 17 -13 22 -10 5 3 9 0 9 -6 0 -6 4 -8 10 -5 5 3 15 -3 22 -15 7 -11
17 -20 22 -20 5 0 1 9 -9 20 -10 11 -13 20 -7 20 6 0 14 -4 17 -10 3 -5 14
-10 23 -9 12 0 11 3 -5 9 -13 5 -23 13 -23 18 0 9 5 11 60 14 19 2 41 7 48 11
7 5 18 5 25 0 16 -12 55 -14 62 -3 3 5 -2 16 -11 25 -9 9 -14 18 -11 21 3 3
15 -4 27 -16 l21 -21 26 31 c14 17 28 28 31 25 3 -2 -3 -15 -14 -27 -19 -23
-19 -23 2 -6 28 24 41 23 19 -2 -10 -11 -14 -20 -9 -20 8 0 47 55 44 62 -1 2
1 10 5 18 7 19 41 24 43 7 1 -7 3 -23 4 -36 3 -23 38 -41 38 -19 0 6 -7 7 -16
4 -10 -4 -14 -1 -11 6 2 7 15 12 28 10 23 -3 23 -2 4 12 -15 11 -22 11 -28 3
-6 -8 -7 -7 -4 3 2 8 12 15 23 16 10 0 27 4 36 8 25 11 47 1 58 -26 5 -14 9
-17 9 -8 1 9 -4 21 -10 27 -8 8 -2 10 20 9 31 -1 45 -16 16 -16 -8 0 -15 -5
-15 -10 0 -7 6 -7 20 0 11 6 20 14 20 19 0 4 7 8 15 8 25 0 17 -13 -20 -32
-19 -11 -32 -21 -30 -23 2 -2 19 5 38 17 36 22 61 14 50 -18 -4 -12 -1 -11 11
4 14 16 17 17 12 3 -4 -13 -1 -15 12 -11 9 3 23 10 29 16 9 6 13 6 13 -1 0
-15 -26 -33 -35 -24 -5 4 -5 1 -1 -6 5 -9 16 -5 42 14 19 15 34 21 34 15 0 -7
4 -9 10 -6 5 3 10 11 10 16 0 6 -5 7 -12 3 -7 -4 -8 -3 -4 4 5 9 13 9 26 2 24
-13 30 -13 30 2 0 6 -3 8 -6 5 -4 -3 -16 -1 -27 5 -16 8 -23 7 -31 -3 -13 -17
-36 -23 -36 -10 0 5 9 12 19 16 12 4 18 12 14 21 -3 8 1 14 11 14 19 0 20 9 2
32 -7 10 -17 14 -21 10 -5 -4 -5 -1 -1 6 6 10 13 8 30 -10 13 -14 19 -27 14
-34 -5 -7 1 -18 17 -28 14 -9 25 -12 25 -7 0 6 -8 15 -18 20 -15 9 -15 10 -1
11 9 0 20 -8 23 -17 6 -15 8 -15 17 -3 7 11 8 7 5 -13 -3 -19 -1 -27 7 -24 7
2 11 13 10 23 -1 10 0 13 3 7 3 -7 10 -13 15 -13 6 0 7 5 3 12 -4 6 -3 8 4 4
5 -3 13 0 15 6 4 9 6 10 6 1 1 -6 -8 -18 -19 -26 -11 -8 -17 -17 -13 -20 4 -4
18 3 32 15 l26 23 -24 -27 c-29 -34 -17 -37 18 -5 14 12 20 15 13 6 -16 -21
-5 -49 16 -42 14 4 14 3 3 -5 -8 -6 -21 -7 -30 -4 -14 5 -14 3 -2 -11 10 -13
18 -14 32 -6 15 8 21 6 26 -6 4 -12 8 -13 13 -5 5 9 9 9 14 1 4 -6 2 -11 -4
-11 -6 0 -8 -5 -5 -10 4 -6 10 -8 14 -6 4 3 13 1 21 -4 13 -8 13 -11 1 -22 -9
-8 -11 -9 -7 -1 4 8 -2 10 -20 7 -22 -4 -25 -2 -20 13 5 16 4 15 -9 -1 -8 -11
-15 -23 -15 -28 0 -4 -5 -8 -11 -8 -8 0 -8 4 1 15 6 8 9 19 6 24 -4 5 -2 12 4
16 5 3 10 11 10 18 0 6 -7 2 -16 -9 -8 -10 -12 -13 -8 -5 5 10 3 12 -7 5 -8
-4 -20 -9 -27 -10 -11 -2 -11 1 -1 14 11 14 11 15 -1 5 -17 -16 -30 -17 -30
-2 0 5 4 8 9 4 5 -3 13 -1 16 5 4 6 3 9 -2 8 -4 -1 -18 3 -29 10 -12 6 -25 8
-29 4 -5 -4 -5 -1 0 7 6 10 4 12 -5 6 -8 -5 -11 -4 -6 3 3 6 -1 9 -11 7 -10
-1 -26 2 -37 7 -14 8 -17 7 -11 -3 6 -8 4 -10 -6 -4 -11 7 -12 6 -2 -6 12 -15
13 -19 13 -44 0 -8 4 -15 8 -15 5 0 9 7 9 15 0 8 -5 15 -10 15 -6 0 -8 2 -5 5
3 3 12 3 21 0 18 -7 17 -26 -2 -49 -12 -14 -12 -16 2 -10 8 3 18 12 21 20 5
12 10 13 28 2 13 -7 29 -11 35 -10 7 2 11 -3 9 -10 -1 -7 -1 -9 2 -5 2 4 14
-5 26 -22 17 -23 25 -28 34 -19 6 6 15 9 18 5 4 -4 -5 -18 -19 -31 -26 -24
-26 -25 -7 -31 11 -4 17 -11 14 -17 -5 -7 -2 -8 6 -3 10 6 10 11 -3 20 -15 11
-15 14 3 30 12 10 18 25 16 32 -6 16 10 18 19 2 4 -5 -1 -19 -11 -30 -21 -23
-10 -38 16 -21 25 15 30 15 30 -1 0 -18 36 -50 48 -43 12 7 28 -12 33 -37 2
-10 8 -17 14 -17 5 1 13 -7 17 -17 7 -16 8 -16 5 2 -2 11 -9 19 -15 18 -7 -2
-12 5 -12 15 0 10 -5 23 -12 30 -9 9 -9 12 0 12 7 0 15 -7 18 -15 5 -13 9 -13
22 -3 13 11 14 10 8 -10 -5 -14 -3 -22 4 -22 6 0 9 4 5 9 -3 6 3 9 12 9 10 0
26 3 36 7 14 6 16 3 11 -11 -4 -14 -3 -15 4 -6 7 11 10 11 15 -2 4 -9 -1 -17
-14 -21 -19 -6 -24 -38 -5 -35 5 1 13 -5 18 -14 5 -9 13 -16 18 -16 6 0 2 9
-7 19 -9 11 -20 18 -25 15 -4 -3 -8 -1 -8 5 0 10 31 31 46 31 3 0 0 -8 -7 -17
-12 -14 -12 -16 0 -8 11 6 13 4 8 -9 -4 -11 -3 -15 4 -11 6 4 8 14 5 22 -4 9
-1 13 6 10 7 -2 12 -10 11 -16 -4 -16 8 -14 21 5 11 14 13 14 27 -2 12 -16 12
-17 -3 -11 -10 3 -18 2 -18 -2 0 -11 30 -23 31 -13 5 44 4 54 -4 59 -6 3 -7 1
-3 -5 4 -7 3 -12 -3 -12 -18 0 -21 18 -5 24 9 4 14 9 11 13 -4 3 -13 0 -22 -7
-12 -10 -15 -10 -15 1 0 11 -3 11 -11 -1 -9 -13 -10 -12 -5 3 4 12 2 16 -6 11
-7 -5 -8 -3 -3 6 5 9 4 11 -3 6 -8 -5 -10 -1 -6 11 6 16 5 16 -8 -1 -10 -13
-17 -16 -22 -7 -4 6 0 14 8 17 22 9 20 19 -4 21 -11 1 -18 -2 -16 -6 7 -11
-12 -36 -21 -27 -4 5 -2 11 5 13 6 3 9 9 6 15 -4 6 -14 -4 -24 -22 -11 -21
-20 -29 -24 -21 -4 6 -3 11 3 11 5 0 9 9 8 20 -1 11 -5 20 -10 20 -5 0 -6 -7
-3 -16 3 -8 2 -12 -3 -9 -5 3 -12 1 -16 -5 -3 -5 -11 -10 -17 -10 -6 0 -4 8 6
19 15 16 15 19 1 31 -12 10 -13 16 -4 27 7 7 9 16 5 20 -3 4 -12 -2 -20 -12
-9 -13 -15 -15 -20 -6 -4 6 -12 8 -18 5 -7 -5 -8 -2 -3 7 7 11 5 11 -10 -1
-17 -13 -18 -13 -10 0 8 13 7 13 -10 0 -15 -12 -17 -12 -10 -1 6 10 4 12 -6 6
-11 -7 -11 -5 1 11 14 18 14 18 -4 4 -19 -15 -19 -14 -2 12 17 25 16 27 -3 33
-24 7 -28 22 -6 22 8 0 12 -4 10 -8 -3 -4 2 -9 9 -12 8 -3 17 -3 19 1 2 4 2 1
1 -5 -2 -7 7 -19 19 -28 20 -14 23 -14 34 2 7 9 13 12 13 7 0 -6 -6 -16 -12
-23 -11 -11 -9 -12 9 -7 16 5 27 1 40 -13 12 -15 20 -18 30 -9 9 7 13 7 13 -1
0 -6 -4 -11 -8 -11 -5 0 -9 -7 -9 -15 0 -22 15 -18 22 6 6 19 8 19 20 3 17
-24 49 -28 40 -6 -3 9 5 4 18 -12 16 -19 28 -26 37 -21 8 5 11 4 7 -2 -10 -16
25 -26 36 -11 7 10 8 9 4 -2 -3 -9 1 -24 8 -33 11 -15 13 -16 19 -2 3 8 1 15
-4 15 -6 0 -10 10 -9 23 l0 22 10 -24 9 -23 18 22 c15 18 19 19 19 7 0 -9 -4
-14 -9 -11 -8 5 -13 -12 -8 -31 1 -5 3 -16 3 -23 0 -7 7 -10 14 -7 8 3 18 5
21 5 4 0 0 5 -8 11 -12 8 -10 9 8 4 13 -4 22 -2 22 4 0 11 -13 15 -40 12 -13
-2 -13 0 -1 8 16 10 64 -7 55 -20 -2 -4 3 -12 12 -17 9 -5 15 -13 14 -18 -1
-5 4 -10 12 -13 7 -2 10 0 6 4 -9 10 10 35 26 35 7 0 6 -3 -2 -9 -10 -6 -8
-13 7 -32 11 -13 20 -19 21 -14 0 6 -6 17 -12 25 -11 12 -10 12 5 1 24 -19 35
-5 11 15 -18 14 -18 15 4 4 27 -13 27 -18 0 -47 -12 -13 -17 -23 -11 -23 5 0
18 9 27 19 15 16 22 18 42 9 18 -8 23 -17 18 -31 -3 -11 -2 -17 3 -14 5 3 15
2 23 -3 12 -7 12 -11 0 -25 -12 -15 -15 -14 -27 10 -8 14 -18 23 -23 20 -5 -3
-11 4 -15 15 -5 16 -9 17 -20 7 -14 -13 -10 -31 5 -22 5 3 12 0 16 -7 4 -7 4
-10 -1 -6 -4 4 -15 2 -23 -5 -13 -10 -14 -9 -7 2 5 10 4 12 -4 7 -6 -4 -14 0
-17 8 -4 11 -15 14 -30 12 -17 -3 -22 -1 -18 7 4 7 4 9 -1 5 -4 -4 -15 -2 -23
5 -9 6 -13 7 -9 1 3 -6 0 -11 -8 -11 -8 0 -15 4 -15 9 0 17 -2 23 -12 36 -19
22 -29 12 -12 -13 8 -13 13 -28 10 -34 -8 -12 3 -41 15 -41 4 0 6 8 2 18 -3 9
-3 14 2 10 4 -4 14 -3 22 3 21 18 17 -7 -5 -29 -15 -15 -16 -21 -6 -30 18 -17
29 -15 15 2 -8 10 -9 16 -1 21 5 3 10 1 10 -5 0 -6 4 -9 9 -6 5 3 11 -3 14
-14 4 -15 0 -20 -16 -21 -18 -1 -19 -2 -4 -6 10 -3 26 2 36 11 17 15 20 15 46
-6 16 -13 26 -17 22 -11 -4 6 -3 14 2 17 5 3 11 -1 15 -9 3 -9 -3 -19 -14 -25
-13 -7 -20 -7 -20 -1 0 16 -38 33 -45 21 -4 -6 -3 -10 2 -9 19 3 33 -2 33 -12
0 -5 -5 -7 -12 -3 -6 4 -8 3 -4 -4 7 -12 44 -8 59 7 7 7 14 5 21 -4 7 -10 16
-12 25 -6 13 8 13 12 0 27 -13 16 -12 17 4 11 10 -4 21 -7 23 -7 3 0 2 -4 -1
-10 -3 -6 1 -7 9 -4 10 4 18 -1 22 -11 5 -13 9 -14 15 -4 4 8 11 10 15 6 4 -3
2 -12 -4 -20 -8 -9 -8 -17 0 -27 8 -12 9 -12 4 2 -3 10 -1 20 4 23 6 4 10 1
10 -4 0 -18 28 -12 34 7 8 24 30 24 45 0 12 -19 2 -25 -15 -8 -6 6 -14 3 -22
-10 -7 -12 -8 -20 -2 -20 5 0 10 5 10 10 0 6 5 10 11 10 6 0 8 -7 5 -17 -6
-15 -5 -15 13 1 19 17 20 17 30 -2 6 -11 8 -22 5 -24 -2 -3 7 -13 21 -22 14
-9 25 -12 25 -6 0 5 -5 10 -11 10 -5 0 -7 4 -4 10 3 5 0 7 -8 4 -7 -2 -14 1
-14 8 0 7 -2 18 -3 23 -5 20 0 36 10 30 6 -4 8 -11 5 -16 -4 -5 -3 -14 1 -20
4 -8 9 -7 15 2 4 8 3 19 -3 26 -14 17 2 16 25 -1 15 -12 16 -14 2 -20 -17 -6
-19 -15 -6 -35 8 -12 13 -11 31 10 15 17 20 19 16 7 -7 -22 10 -24 18 -2 5 13
9 13 33 -5 15 -13 34 -19 45 -16 13 5 16 2 12 -8 -2 -7 3 -20 12 -28 12 -9 15
-10 10 -1 -4 6 -2 12 3 12 6 0 11 5 11 11 0 8 -5 8 -15 -1 -8 -7 -15 -8 -15
-2 0 5 7 15 15 22 12 10 16 9 22 -6 4 -11 15 -25 24 -32 17 -12 16 -47 -1 -37
-5 3 -11 1 -14 -4 -4 -5 2 -8 11 -7 9 2 19 8 21 15 3 8 15 3 37 -14 19 -14 37
-25 41 -25 5 0 -11 14 -34 31 -23 17 -42 36 -42 41 0 6 8 3 19 -6 16 -14 19
-15 24 -2 5 12 18 14 45 7 1 -1 -3 -7 -10 -15 -10 -10 -15 -11 -21 -2 -6 7 -7
6 -5 -3 5 -19 48 -47 48 -32 0 6 -7 11 -16 11 -8 0 -12 5 -9 10 4 6 11 7 17 4
7 -5 8 -2 3 6 -5 8 -3 11 6 8 8 -3 13 -14 11 -24 -2 -16 -1 -16 7 -4 5 8 13
11 17 7 4 -3 1 -15 -7 -24 -7 -10 -10 -15 -5 -11 5 4 15 1 23 -7 11 -11 19
-12 34 -4 11 5 17 14 14 20 -4 5 3 8 14 6 23 -4 41 -17 23 -17 -7 0 -12 -5
-12 -11 0 -8 5 -8 15 1 12 10 18 10 32 -1 11 -10 14 -10 9 -1 -4 7 -1 12 8 12
21 0 20 -17 -1 -29 -10 -6 -13 -11 -7 -11 5 0 16 6 23 12 11 11 13 10 8 -4 -6
-18 28 -46 41 -34 3 3 0 6 -8 6 -10 0 -10 3 0 15 6 8 8 20 4 26 -5 9 -2 10 10
6 10 -4 20 -7 22 -7 2 0 4 -7 4 -15 0 -8 5 -15 10 -15 7 0 7 6 0 20 -17 31 4
24 29 -10 l22 -31 -28 6 c-27 5 -27 5 -4 -5 20 -9 28 -7 48 11 12 13 23 18 23
12 0 -5 -9 -18 -20 -28 -11 -10 -20 -22 -20 -27 0 -5 12 5 26 22 15 17 29 29
32 26 3 -3 0 -12 -7 -19 -13 -16 -5 -47 12 -47 7 0 7 4 -1 12 -17 17 -15 33 3
18 10 -9 15 -9 15 -1 0 6 -5 11 -12 11 -18 0 0 14 24 17 12 2 19 0 15 -3 -7
-8 22 -33 38 -33 6 0 2 4 -7 10 -10 5 -18 15 -18 21 0 6 7 5 17 -3 11 -10 14
-10 9 -1 -4 6 -2 12 3 12 6 0 11 -7 11 -16 0 -11 5 -14 18 -9 28 11 34 11 39
-3 3 -7 1 -12 -4 -11 -4 1 -15 1 -23 0 -13 -1 -13 -2 0 -11 9 -6 19 -5 28 3
11 9 13 7 10 -7 -2 -11 5 -21 17 -26 18 -7 21 -4 20 19 0 18 -5 26 -17 25 -12
-1 -16 5 -13 25 1 14 -2 29 -9 33 -6 4 -7 10 -3 15 5 4 12 2 16 -6 7 -10 9
-10 14 2 6 17 -18 31 -35 20 -6 -3 -8 -1 -5 4 4 6 0 13 -8 17 -18 6 -19 2 -4
-26 8 -15 8 -19 0 -14 -6 4 -11 2 -11 -3 0 -6 7 -11 16 -11 8 0 12 -5 9 -10
-4 -6 -10 -8 -15 -5 -5 3 -13 -3 -19 -12 -6 -10 -11 -13 -11 -8 0 6 6 17 12
25 10 11 9 11 -6 0 -19 -15 -19 -14 -2 15 l18 30 -21 -25 c-18 -21 -20 -22
-15 -5 4 14 3 16 -4 7 -7 -11 -10 -11 -15 2 -4 10 -13 13 -23 9 -13 -5 -15 -3
-9 8 7 11 6 12 -7 2 -8 -7 -18 -10 -22 -6 -3 4 -16 7 -28 8 -20 2 -20 1 -3
-11 10 -8 15 -17 12 -21 -4 -4 -15 0 -23 9 -13 13 -14 20 -4 38 11 20 10 22
-5 17 -9 -4 -20 -7 -23 -7 -4 0 -1 -4 6 -9 11 -7 10 -9 -3 -14 -10 -5 -14 -3
-9 5 5 7 3 8 -6 3 -9 -6 -11 -4 -5 5 5 9 4 11 -3 6 -6 -4 -21 -2 -33 5 -17 9
-20 8 -14 -2 5 -8 4 -10 -4 -5 -6 4 -8 13 -4 19 4 7 -2 5 -12 -3 -10 -8 -16
-10 -12 -4 4 7 -5 10 -24 9 -18 -1 -33 4 -39 14 -6 11 -9 12 -10 3 0 -10 -3
-10 -14 0 -8 7 -10 17 -6 23 5 6 0 20 -10 33 -25 30 -36 28 -15 -4 12 -19 14
-29 6 -37 -8 -8 -11 -7 -11 3 0 9 -6 8 -22 -6 -17 -15 -20 -16 -16 -3 4 9 1
16 -8 16 -7 0 -10 -5 -7 -10 3 -6 1 -7 -5 -3 -6 3 -13 2 -17 -4 -3 -5 -12 -10
-18 -10 -7 1 -2 9 11 20 13 11 18 21 12 25 -5 3 -10 0 -10 -7 0 -9 -3 -9 -10
2 -6 10 -10 11 -10 3 0 -7 -5 -13 -11 -13 -8 0 -8 4 0 14 9 11 9 16 0 22 -7 4
-9 3 -6 -2 3 -6 -5 -10 -18 -10 -13 0 -22 3 -19 7 2 5 -5 6 -16 4 -14 -3 -18
0 -14 8 4 7 4 9 -1 5 -4 -4 -16 -3 -26 2 -15 8 -17 7 -14 -10 5 -26 -9 -26
-36 1 -17 17 -18 23 -7 37 20 27 22 28 15 10 -4 -12 -1 -16 14 -15 10 1 19 5
19 10 0 5 7 7 15 3 9 -3 15 0 15 10 0 9 -5 12 -12 8 -7 -4 -8 -3 -4 5 12 19
28 1 22 -25 -8 -30 2 -31 14 -1 7 18 9 19 11 5 3 -33 4 -36 12 -44 4 -4 7 -3
8 2 0 5 2 21 4 37 2 15 0 25 -6 22 -5 -4 -12 1 -15 9 -3 9 -11 13 -17 9 -6 -4
-7 -1 -2 7 6 10 10 10 19 -2 6 -8 19 -14 28 -12 14 2 16 -1 8 -16 -16 -31 -11
-37 11 -11 11 13 22 22 24 19 3 -2 -4 -14 -14 -25 -13 -13 -16 -25 -10 -34 7
-11 9 -11 9 -1 0 8 5 10 12 6 7 -5 9 -2 6 8 -4 9 0 15 8 15 8 0 13 -7 12 -15
-2 -8 3 -17 10 -19 8 -3 10 2 6 14 -5 14 -4 15 4 3 7 -9 7 -19 2 -25 -6 -7 -5
-16 2 -23 16 -16 33 -15 19 1 -8 10 -7 19 4 33 14 19 15 18 33 -5 13 -16 21
-20 26 -12 5 8 11 7 22 -3 19 -19 18 -32 -1 -16 -21 18 -26 9 -9 -14 8 -11 14
-16 14 -12 0 5 7 3 16 -5 14 -11 15 -10 12 7 -2 12 3 19 12 19 8 0 21 4 29 9
9 6 12 5 8 -1 -4 -6 1 -17 10 -24 15 -12 16 -12 10 5 -6 15 -5 17 6 8 8 -7 17
-9 20 -5 7 6 11 -10 8 -32 0 -6 8 -11 19 -12 17 -2 18 1 9 18 -6 12 -8 23 -5
27 3 3 6 0 6 -6 0 -6 8 -9 18 -6 14 5 14 4 2 -5 -8 -5 -11 -13 -7 -17 3 -4 14
-1 22 6 13 11 18 10 31 -6 14 -17 15 -17 10 -1 -3 10 -2 16 3 12 5 -3 11 1 14
7 2 7 4 -3 3 -22 -1 -27 3 -35 19 -38 11 -2 16 0 10 5 -13 10 -18 43 -7 43 8
0 12 -14 13 -53 0 -14 3 -16 13 -8 7 6 15 8 18 6 3 -3 8 3 11 15 5 21 -8 29
-15 8 -3 -7 -7 -5 -11 6 -4 9 -3 15 2 12 4 -3 17 1 27 9 10 8 23 15 28 15 6 0
1 -6 -9 -14 -18 -13 -17 -14 15 -31 32 -17 34 -17 47 1 7 10 13 13 13 8 0 -6
-6 -16 -12 -23 -11 -11 -9 -12 7 -7 20 5 48 -5 46 -18 -3 -19 0 -18 15 2 8 12
23 21 32 21 15 -1 15 -2 -1 -6 -9 -2 -14 -9 -11 -15 4 -7 2 -8 -4 -4 -7 4 -12
3 -12 -2 0 -6 7 -13 16 -16 8 -3 13 -10 10 -15 -4 -5 -3 -11 1 -14 5 -2 3 -3
-3 -1 -6 1 -18 -3 -25 -9 -11 -10 -11 -9 -2 3 8 11 9 20 1 30 -8 12 -9 11 -3
-5 3 -11 3 -16 -1 -12 -4 4 -14 1 -22 -6 -9 -6 -13 -7 -9 -1 3 6 0 11 -8 11
-8 0 -15 -5 -15 -11 -1 -6 -7 0 -14 13 -8 15 -16 20 -20 12 -4 -6 -2 -11 5
-11 7 0 9 -3 6 -6 -3 -4 5 -16 19 -27 19 -15 22 -22 13 -28 -8 -4 -10 -11 -6
-15 4 -4 14 2 23 14 8 12 20 22 26 22 6 0 6 -6 -2 -16 -8 -8 -9 -14 -4 -12 5
1 19 -3 32 -10 12 -7 22 -10 22 -6 0 3 8 0 17 -7 9 -8 14 -9 10 -3 -4 7 0 18
9 25 13 11 14 9 9 -13 -4 -16 -2 -29 5 -33 9 -5 10 -2 6 12 -4 14 -2 20 9 20
9 0 14 -6 11 -13 -3 -8 0 -11 9 -7 8 3 12 9 9 14 -3 5 2 9 10 9 22 0 20 -16
-3 -32 -14 -10 -17 -18 -10 -28 6 -12 9 -12 9 -2 0 7 7 20 15 29 9 8 13 23 10
32 -3 12 1 17 16 18 18 2 19 0 7 -14 -9 -12 -10 -15 0 -9 7 4 12 1 12 -9 0 -9
-4 -14 -9 -10 -10 6 -36 -33 -28 -42 3 -2 8 4 11 14 3 10 15 19 26 20 13 1 18
-2 13 -10 -3 -7 3 -3 15 7 23 20 31 9 10 -12 -7 -7 -8 -12 -4 -12 5 0 2 -8 -5
-17 -13 -16 -12 -17 2 -5 14 10 18 10 23 -3 3 -8 10 -15 16 -15 6 0 2 10 -9
22 -11 11 -18 25 -14 31 3 5 11 0 18 -13 10 -19 13 -20 18 -6 4 10 3 15 -2 12
-5 -3 -11 1 -15 9 -4 10 1 14 17 12 12 -1 21 3 20 10 -1 6 4 14 12 17 19 7 19
2 0 -34 -9 -17 -11 -30 -5 -30 5 0 10 7 10 16 0 12 5 11 20 -7 18 -22 26 -17
21 14 -2 13 9 8 36 -17 15 -14 30 -23 34 -21 4 3 9 -1 12 -9 3 -8 -1 -17 -9
-20 -16 -6 -19 -26 -3 -26 5 0 7 5 4 10 -3 6 -1 11 4 11 6 1 14 2 19 3 4 0 24
18 44 40 35 37 36 37 35 12 -1 -16 -7 -25 -16 -23 -8 1 -16 -4 -18 -10 -7 -21
13 -15 46 13 36 30 41 21 9 -13 -17 -19 -19 -26 -9 -36 10 -9 11 -8 5 7 -6 15
-4 17 6 11 8 -5 11 -4 7 2 -4 6 1 17 10 24 14 12 15 11 9 -11 -6 -25 -6 -25 6
-2 6 13 17 21 25 18 8 -4 11 -1 8 5 -4 6 -14 8 -22 5 -11 -5 -13 -2 -8 11 12
32 10 38 -12 37 -13 -1 -20 2 -17 7 3 5 -3 6 -13 3 -17 -6 -17 -6 0 7 16 13
16 14 -8 15 -22 2 -23 0 -14 -18 9 -16 8 -19 -2 -13 -8 6 -10 4 -4 -6 7 -11 6
-12 -7 -2 -8 7 -19 9 -23 5 -5 -4 -5 0 0 8 5 8 5 12 0 8 -4 -4 -17 -3 -28 3
-10 6 -17 7 -14 2 4 -5 0 -10 -8 -10 -12 0 -12 3 -2 16 10 12 9 13 -3 6 -19
-12 -61 -14 -54 -3 3 4 9 6 14 3 18 -11 16 11 -3 30 -15 15 -19 16 -14 4 6
-18 -18 -59 -35 -59 -5 0 -7 7 -4 16 4 10 2 13 -7 8 -9 -6 -9 -4 1 8 8 10 9
19 3 22 -5 4 -12 -3 -16 -14 -6 -18 -26 -29 -24 -12 5 28 -2 35 -17 16 -8 -10
-12 -12 -8 -4 7 13 5 13 -8 2 -11 -9 -18 -10 -23 -2 -3 6 -11 8 -16 5 -5 -4
-9 -1 -9 5 0 13 -32 9 -42 -5 -5 -6 -8 -4 -8 4 0 11 -4 9 -15 -5 -9 -10 -14
-13 -13 -5 4 17 -34 24 -45 8 -6 -8 -7 -6 -3 6 3 10 2 15 -3 12 -5 -3 -12 -1
-16 5 -4 6 -18 1 -35 -12 -17 -12 -33 -19 -36 -15 -3 3 7 14 24 24 27 17 29
20 16 38 -18 25 -18 39 1 31 8 -3 19 2 24 12 6 9 11 12 11 7 0 -6 -5 -16 -12
-23 -6 -6 -9 -14 -6 -18 4 -3 16 4 27 15 12 12 26 21 32 21 5 0 7 5 3 12 -5 7
-3 8 6 3 10 -6 9 -11 -5 -22 -11 -7 -23 -13 -28 -13 -4 0 -6 -4 -2 -10 3 -5
12 -7 20 -3 16 6 21 -12 5 -22 -5 -3 -7 -12 -3 -21 10 -26 24 4 25 51 0 11 2
14 5 8 3 -7 9 -13 14 -13 6 0 7 5 4 10 -3 6 -1 10 4 10 17 0 13 -14 -10 -33
-20 -18 -20 -19 -2 -32 23 -17 30 -11 12 12 -8 9 -9 14 -2 10 6 -4 13 -1 16 5
2 7 8 9 13 5 5 -4 3 -12 -5 -16 -10 -6 -9 -10 4 -15 24 -9 25 -8 19 11 -4 13
-3 14 3 5 8 -10 12 -10 23 3 11 13 9 15 -11 16 -13 0 -18 3 -11 6 7 3 20 2 28
-1 14 -5 14 -9 3 -23 -12 -14 -11 -15 8 -9 16 5 26 0 42 -20 15 -19 21 -22 21
-10 0 20 14 21 30 1 7 -8 17 -15 22 -15 6 0 6 6 -1 14 -9 11 -8 15 5 20 11 4
22 -1 31 -14 13 -18 17 -19 31 -8 13 11 14 11 7 -1 -6 -11 -4 -13 8 -8 11 4
14 2 10 -9 -3 -7 0 -14 6 -14 10 0 15 13 12 32 -1 8 26 4 35 -5 4 -4 12 -7 18
-7 6 0 5 5 -2 12 -7 7 -12 16 -12 22 0 5 6 1 14 -9 8 -11 12 -23 10 -26 -2 -4
6 -7 19 -7 28 0 48 -5 67 -17 15 -10 20 -11 41 -14 5 0 7 -6 4 -11 -4 -6 -10
-8 -15 -5 -5 3 -14 -3 -20 -12 -9 -15 -10 -14 -5 7 6 24 5 24 -9 6 -18 -23 -3
-40 23 -27 9 5 22 6 29 4 13 -5 12 23 -2 45 -5 8 -3 11 5 10 7 -2 13 2 14 9 0
7 7 18 15 25 12 11 12 11 1 -4 -19 -25 1 -22 22 3 18 20 19 20 32 2 16 -21 20
-10 5 16 -8 16 -5 18 20 15 19 -2 30 1 30 9 0 8 4 7 10 -3 8 -13 10 -12 10 3
0 14 5 17 20 12 19 -6 25 3 21 28 -1 5 3 6 8 2 6 -3 8 -11 5 -19 -3 -7 2 -13
11 -13 9 0 14 6 11 13 -2 6 2 21 9 32 8 10 12 21 10 24 -3 3 2 5 10 5 8 0 11
-5 8 -10 -4 -6 0 -8 10 -4 10 4 14 2 11 -6 -2 -7 4 -13 16 -14 11 -1 19 1 19
5 -3 19 3 23 16 12 14 -12 15 -10 11 13 -4 21 1 28 24 39 24 10 27 15 17 28
-8 10 -5 9 9 -3 20 -16 34 -14 34 5 0 5 -5 6 -11 3 -6 -4 -5 2 2 13 7 12 18
18 23 15 6 -4 5 -8 -2 -11 -7 -2 -10 -8 -7 -12 3 -5 12 -7 20 -4 8 4 12 11 9
16 -4 6 1 6 13 -1 11 -6 23 -7 27 -4 4 4 -4 13 -16 20 -13 7 -17 12 -9 13 7 0
29 16 47 35 22 23 35 31 40 24 4 -7 3 -9 -3 -6 -18 11 -23 -21 -6 -35 14 -11
16 -11 10 4 -4 13 -2 15 10 11 10 -4 14 -2 10 5 -4 6 6 20 22 31 33 24 41 26
41 10 0 -5 -4 -7 -10 -4 -11 7 -14 -8 -4 -18 9 -9 35 4 28 15 -3 5 2 15 12 23
11 7 20 18 20 24 1 6 2 17 3 24 1 8 4 8 10 -3 6 -8 7 -18 5 -22 -3 -4 -1 -8 4
-8 17 0 21 13 11 31 -7 15 -6 17 6 13 11 -5 13 -2 9 10 -3 9 -11 13 -17 9 -6
-4 -7 -1 -2 7 6 10 11 10 20 -3 7 -9 15 -13 19 -9 4 4 20 7 34 7 18 0 28 6 30
18 2 9 -2 17 -8 17 -6 0 -9 -4 -6 -8 2 -4 -11 -8 -30 -9 -39 -1 -40 5 -3 13
33 8 51 8 74 0 18 -7 18 -6 -3 12 -21 20 -22 21 -3 27 10 3 24 4 31 3 7 -2 15
3 17 10 3 6 -1 10 -9 9 -7 -2 -10 -2 -5 0 4 3 4 10 0 16 -4 7 2 5 12 -3 17
-14 18 -13 12 3 -4 11 -3 16 4 12 5 -4 7 -16 4 -26 -6 -18 -5 -19 14 -7 12 7
17 14 11 16 -5 2 -10 8 -10 13 0 6 4 8 9 5 4 -3 16 3 26 14 14 15 15 20 4 20
-9 0 -10 3 -3 8 6 4 13 14 16 22 3 8 6 0 5 -17 0 -18 -4 -33 -9 -33 -17 0 -7
-16 11 -17 16 -1 19 4 16 27 -3 23 3 35 26 54 16 14 29 29 29 33 -1 4 4 9 12
11 10 3 10 2 -1 -6 -9 -7 -10 -11 -2 -17 7 -4 9 -16 5 -28 l-6 -22 21 23 c26
26 28 27 28 7 0 -8 -5 -11 -11 -8 -6 4 -4 -2 4 -12 12 -15 12 -17 1 -10 -10 6
-12 4 -6 -6 5 -8 5 -11 0 -7 -4 4 -15 2 -23 -5 -13 -10 -15 -9 -8 3 4 8 1 6
-8 -4 -8 -10 -12 -24 -9 -30 4 -6 -2 -4 -12 4 -12 9 -16 10 -11 2 4 -7 4 -11
-1 -10 -14 5 -65 -40 -51 -45 7 -2 11 -7 8 -10 -3 -3 -12 -2 -20 4 -13 8 -13
11 3 23 22 17 22 21 -1 23 -18 1 -20 -3 -24 -46 -1 -11 -7 -17 -13 -13 -5 3
-4 -2 4 -11 7 -9 9 -17 3 -17 -5 0 -13 7 -16 16 -5 14 -10 12 -27 -10 -17 -22
-24 -24 -41 -15 -12 7 -18 7 -14 1 3 -6 3 -18 0 -27 -6 -13 -9 -14 -16 -3 -7
10 -8 9 -4 -4 3 -11 1 -17 -7 -15 -7 1 -11 -4 -10 -10 2 -7 0 -12 -5 -12 -22
4 -30 -3 -27 -21 3 -14 0 -18 -8 -14 -7 4 -6 1 2 -7 10 -11 15 -11 18 -1 7 19
23 4 16 -16 -5 -14 -3 -14 9 2 10 13 17 15 22 8 4 -7 13 -12 19 -12 11 1 -21
24 -33 25 -12 1 -30 17 -30 27 0 7 5 6 14 -1 11 -9 20 -7 40 14 14 14 26 31
26 37 0 6 3 8 7 4 4 -4 8 -15 8 -24 0 -9 7 -17 15 -18 9 0 10 1 3 3 -7 3 -13
9 -13 14 0 6 5 7 12 3 7 -4 8 -3 4 4 -4 7 -3 12 2 12 6 0 12 -7 16 -15 6 -17
26 -20 26 -4 0 5 -4 7 -10 4 -5 -3 -10 -2 -10 4 0 5 6 12 12 15 9 4 8 5 -2 5
-29 -2 -43 1 -36 8 10 11 86 12 86 2 0 -5 5 -9 11 -9 8 0 9 4 0 13 -11 14 -5
27 11 27 5 0 6 -4 3 -10 -4 -6 1 -7 11 -3 11 4 15 3 10 -5 -4 -6 3 -16 16 -22
21 -10 21 -10 6 3 -10 8 -15 17 -11 20 3 4 -2 9 -11 13 -13 5 -14 9 -5 20 9
10 9 17 0 28 -9 10 -7 16 5 27 13 11 15 11 14 -2 -4 -27 0 -40 11 -33 8 4 7 9
-2 15 -11 7 -10 9 4 9 20 0 22 11 5 29 -11 11 -10 13 3 8 9 -3 22 0 28 6 14
14 15 -4 1 -21 -7 -9 -7 -9 2 -2 20 17 29 11 16 -9 -7 -11 -16 -19 -22 -18 -5
1 -12 -6 -14 -15 -2 -10 1 -18 7 -18 6 0 7 7 4 17 -4 10 -2 14 5 9 6 -3 16 3
22 15 9 15 15 18 23 10 6 -6 15 -11 19 -11 5 0 -6 13 -23 28 -28 25 -30 30
-15 35 9 4 15 3 12 -2 -8 -13 30 -43 51 -39 10 2 16 7 15 12 -2 5 2 13 10 18
10 8 10 9 -2 5 -8 -2 -14 -10 -12 -16 1 -6 -7 -11 -18 -11 -25 0 -16 27 11 35
16 5 18 10 8 21 -14 17 2 19 19 2 9 -9 12 -9 12 0 0 7 -5 12 -11 12 -5 0 -7 5
-4 11 5 7 14 4 26 -7 16 -14 17 -19 5 -28 -10 -8 -11 -17 -5 -31 9 -18 9 -18
5 3 -3 18 -1 22 10 18 10 -4 12 -2 8 6 -5 8 -1 9 12 4 11 -4 4 6 -15 23 -19
17 -31 34 -27 38 4 5 16 -2 26 -14 10 -13 22 -23 26 -23 4 0 -1 9 -11 20 -19
20 -9 28 13 10 9 -7 9 -7 2 2 -15 18 -12 26 8 24 11 0 16 6 16 17 -1 10 3 16
10 14 6 -2 10 -13 8 -23 -2 -13 5 -8 22 14 13 19 22 40 19 48 -3 8 -1 14 5 14
5 0 12 -6 14 -12 6 -18 -27 -79 -37 -70 -5 4 -5 1 -1 -5 11 -19 14 -16 30 21
15 36 66 76 53 42 -5 -12 -3 -15 5 -10 7 5 9 2 5 -8 -6 -17 16 -19 30 -3 4 4
2 5 -4 1 -7 -4 -13 -3 -13 3 0 5 -12 23 -26 40 -14 17 -21 31 -16 31 6 0 20
-12 31 -26 l20 -25 -3 28 c-3 33 13 75 25 67 5 -3 5 -14 -1 -24 -5 -10 -10
-22 -10 -27 1 -4 7 3 14 16 11 19 14 21 19 7 4 -9 1 -16 -5 -16 -6 0 -9 -3 -5
-6 3 -3 10 -3 16 0 13 8 -7 56 -23 56 -6 0 -4 5 4 10 22 14 28 12 26 -7 0 -11
5 -17 13 -15 9 2 11 -3 7 -13 -3 -9 -2 -13 4 -10 6 3 10 1 10 -6 0 -7 3 -10 6
-7 9 9 -16 49 -26 43 -5 -3 -8 4 -7 15 1 13 6 19 15 15 7 -3 21 -1 31 5 27 14
60 2 56 -20 -3 -14 1 -17 13 -13 10 4 12 8 4 11 -7 2 -10 8 -6 13 3 5 -7 14
-23 21 -27 11 -27 12 -5 15 12 3 22 8 22 13 0 5 -6 7 -13 4 -8 -3 -14 2 -14
11 0 9 6 14 14 11 8 -3 11 -2 8 3 -3 5 -1 12 5 16 5 3 10 1 10 -6 0 -8 5 -7
17 2 15 12 16 12 10 -3 -4 -12 -2 -15 9 -11 13 5 13 8 -1 23 -15 16 -14 18 1
24 9 4 19 4 22 1 3 -3 0 -5 -6 -5 -9 0 -9 -4 0 -19 9 -15 15 -17 29 -8 13 8
15 15 7 24 -13 16 4 17 20 1 8 -8 12 -9 12 -1 0 6 -5 13 -12 15 -9 3 -9 6 0
12 7 4 14 1 18 -7 4 -11 13 -7 37 17 17 17 30 34 29 38 -4 14 35 8 48 -7 7 -8
17 -15 23 -15 6 0 1 7 -11 16 -12 8 -22 20 -22 26 0 7 6 6 15 -2 11 -9 18 -10
28 -1 8 6 16 9 19 6 2 -3 5 2 5 10 0 8 -4 15 -9 15 -4 0 -8 -5 -8 -11 0 -6 -7
-4 -15 5 -8 8 -15 16 -15 18 0 6 44 3 55 -4 6 -3 16 1 24 9 12 13 11 14 -6 9
-12 -4 -25 -1 -33 8 -10 13 -7 15 21 11 38 -5 60 9 52 33 -5 14 -4 15 8 4 8
-7 14 -18 14 -25 0 -6 9 -13 20 -14 l20 -3 -20 9 c-11 5 -16 10 -11 10 5 1 3
8 -4 16 -9 11 -8 20 10 45 12 17 26 28 31 24 5 -3 19 -2 30 1 17 6 19 9 8 16
-8 5 -18 9 -24 9 -5 0 -3 -5 5 -10 13 -8 13 -10 -2 -10 -23 0 -33 19 -14 26 9
3 12 12 9 21 -4 10 -2 14 5 9 6 -3 13 -2 17 4 3 5 16 10 28 11 21 0 21 1 2 9
-22 9 -21 10 13 14 16 2 21 -1 18 -11 -3 -8 -2 -12 3 -8 5 3 11 0 13 -7 2 -6
12 -12 21 -14 9 -1 15 2 11 7 -3 5 -10 6 -16 3 -8 -5 -9 -1 -5 10 4 9 3 15 -2
12 -9 -6 -26 22 -23 36 1 4 -6 4 -15 1 -10 -4 -14 -2 -9 5 3 6 1 14 -5 18 -7
4 -9 3 -5 -4 3 -6 2 -13 -4 -17 -6 -4 -7 -11 -4 -17 4 -7 2 -8 -5 -4 -6 4 -11
4 -10 -1 1 -4 1 -15 0 -23 -1 -13 -3 -13 -12 0 -9 13 -10 13 -6 -2 5 -12 1
-16 -14 -13 -16 3 -19 0 -14 -18 4 -15 4 -18 -3 -8 -7 9 -12 10 -16 2 -4 -6
-2 -11 5 -11 7 0 9 -3 5 -7 -4 -5 -14 1 -22 11 -8 11 -14 15 -14 10 0 -6 -7
-11 -16 -11 -15 0 -15 1 0 12 8 7 12 16 8 20 -4 5 -2 5 4 2 7 -4 17 0 24 8 10
12 16 13 27 3 12 -10 14 -9 11 3 -1 8 9 30 24 48 23 27 31 30 48 21 14 -8 26
-8 40 0 24 13 27 2 3 -15 -16 -12 -14 -16 17 -46 19 -19 28 -25 20 -14 -8 11
-21 26 -29 33 -13 11 -13 13 2 25 9 6 15 21 12 32 -2 11 -4 63 -4 115 -1 60
-5 90 -10 81 -7 -11 -10 -9 -14 10 -2 13 -5 2 -6 -26 -1 -43 -3 -47 -13 -30
-7 11 -11 36 -11 55 0 28 0 29 -4 7 l-4 -27 -29 20 -29 20 -4 -22 c-3 -18 -5
-17 -6 7 -1 17 -6 37 -11 45 -7 11 -10 7 -10 -18 0 -20 -4 -31 -10 -27 -5 3
-11 -2 -12 -12 0 -10 -4 5 -8 32 -6 46 -7 47 -8 13 -2 -36 -22 -56 -22 -22 0
24 -27 -1 -33 -29 -2 -12 -5 3 -7 33 -1 42 -4 49 -9 30 l-8 -25 -5 25 c-5 23
-5 23 -7 -5 -1 -34 -16 -62 -24 -48 -3 5 -4 21 -3 35 5 40 -11 58 -20 23 l-7
-29 -10 25 c-8 20 -11 21 -14 7 -6 -25 -22 -22 -27 5 -3 12 -7 31 -9 42 -3 11
-5 4 -6 -15 -1 -36 -21 -82 -21 -50 0 8 -9 21 -20 28 -18 11 -20 10 -20 -12 0
-13 -7 -29 -15 -36 -13 -11 -15 -8 -15 13 0 14 -4 29 -10 32 -5 3 -10 -1 -10
-10 0 -27 -20 -6 -21 23 l-1 27 -8 -25 c-5 -17 -8 -19 -9 -7 -1 25 -21 21 -22
-5 -1 -15 -4 -11 -9 12 -5 26 -8 29 -9 11 -1 -21 -3 -22 -18 -10 -15 13 -16
11 -11 -14 3 -15 1 -27 -3 -27 -5 0 -9 17 -9 38 0 27 -3 33 -10 22 -5 -8 -10
-10 -10 -5 0 6 -5 3 -10 -5 -7 -11 -10 -5 -10 24 0 22 -4 67 -9 100 -5 34 -15
126 -21 206 -28 355 -48 530 -62 530 -5 0 -10 -6 -12 -12 -19 -70 -53 -360
-77 -650 -6 -81 -15 -145 -20 -143 -4 3 -13 -4 -20 -16 l-11 -22 -14 24 c-12
22 -13 22 -15 4 -1 -11 -5 -2 -9 20 -5 31 -8 16 -11 -65 l-3 -105 -3 83 c-4
75 -13 102 -26 69 -3 -6 -6 8 -7 33 -1 35 -3 40 -10 25 -8 -18 -9 -18 -10 5
-1 14 -4 19 -7 13 -7 -18 -23 -16 -23 2 0 18 -16 20 -23 3 -3 -7 -6 4 -6 24
-1 25 -5 37 -13 35 -8 -1 -15 16 -20 48 -7 54 -31 160 -53 240 -7 28 -17 79
-20 115 -4 36 -10 70 -14 75 -4 6 -13 30 -20 54 -9 31 -15 40 -20 30 -15 -28
-56 -310 -72 -499 -11 -116 -27 -178 -30 -110 -1 32 -2 33 -9 10 -7 -21 -8
-22 -10 -5 -1 20 -1 20 -9 0 -6 -16 -10 -10 -15 27 -7 45 -26 77 -26 44 0 -10
-6 -13 -15 -10 -10 4 -15 21 -16 53 l-1 46 -9 -50 c-4 -27 -11 -66 -14 -85
l-7 -35 -13 30 c-13 30 -13 30 -15 5 -1 -21 -4 -18 -15 15 -7 22 -13 32 -14
23 -1 -19 -21 -26 -21 -7 0 6 -6 17 -14 25 -11 11 -16 11 -19 1 -3 -6 -6 5 -6
25 -1 31 -4 36 -21 33 -14 -3 -20 2 -20 13 0 15 -2 15 -10 2 -7 -11 -10 -5
-11 25 l-1 40 -12 -43 c-11 -42 -26 -48 -26 -11 0 9 -4 19 -9 21 -10 3 -17 49
-46 296 -8 68 -18 128 -21 133 -8 13 -24 1 -24 -17 0 -8 5 -12 10 -9 16 10 12
-6 -5 -19 -15 -12 -35 -113 -35 -186 0 -52 -10 -72 -29 -61 -7 5 -12 11 -11
15 4 16 -13 115 -19 112 -4 -3 -8 27 -9 65 -2 38 -7 81 -12 95 -6 14 -10 36
-10 50 0 14 -6 31 -12 38 -11 11 -15 9 -25 -13 -11 -26 -11 -26 -12 11 -1 55
-22 141 -31 131 -10 -10 -30 -168 -30 -234 0 -29 -6 -51 -15 -59 -12 -10 -15
-9 -15 4 0 18 -15 47 -42 85 -10 13 -18 32 -18 42 0 11 -4 19 -10 19 -5 0 -10
-17 -10 -37 0 -28 -3 -34 -10 -23 -11 18 -18 12 -22 -22 -6 -41 -18 -46 -18
-7 0 37 -29 92 -30 57 0 -10 -7 -37 -15 -61 -8 -25 -19 -117 -25 -218 -6 -96
-14 -189 -18 -208 -7 -33 -8 -34 -26 -16 -18 18 -19 18 -32 0 -12 -16 -14 -16
-14 -3 0 23 -20 34 -31 17 -6 -10 -10 -8 -17 11 l-9 24 -7 -27 c-9 -37 -32
-34 -40 6 -5 24 -9 28 -16 18 -7 -12 -10 -8 -15 15 -3 16 -10 43 -15 60 -6 17
-10 39 -11 50 -1 34 -28 -37 -29 -77 0 -46 -10 -56 -27 -27 l-12 23 -1 -23 c0
-22 -1 -23 -17 -6 -17 17 -18 17 -21 -4 -4 -28 -22 -29 -22 -1 0 11 -4 17 -10
14 -6 -4 -10 10 -10 34 0 21 -3 47 -7 57 -6 16 -7 16 -13 -2 -5 -13 -11 4 -20
54 l-13 73 -14 -33 c-8 -18 -16 -58 -19 -88 -6 -64 -10 -80 -22 -80 -8 0 -20
79 -52 345 -27 231 -52 329 -64 255 -17 -102 -27 -210 -33 -340 -6 -140 -21
-236 -22 -142 -1 23 -5 42 -9 42 -11 0 -30 -38 -35 -70 -3 -19 -5 -17 -6 9 0
19 -5 62 -10 95 -34 224 -59 485 -81 841 -31 507 -37 582 -47 572 -10 -11 -22
-288 -32 -737 -6 -256 -13 -525 -17 -598 -6 -124 -7 -132 -21 -106 -7 16 -17
47 -20 71 -3 23 -10 40 -14 37 -5 -3 -9 2 -9 10 0 9 -4 16 -9 16 -5 0 -12 14
-16 31 -5 20 -12 29 -20 25 -9 -3 -12 0 -8 10 5 14 -1 34 -28 86 -5 10 -9 25
-9 33 0 9 -5 13 -10 10 -6 -3 -10 3 -10 14 0 12 -3 21 -7 21 -5 0 -16 14 -26
32 -13 23 -21 28 -26 19 -6 -8 -11 -4 -18 16 -18 50 -31 97 -44 156 -8 39 -15
54 -21 45 -6 -8 -7 -5 -3 10 6 20 -7 70 -51 202 -4 13 -6 13 -15 0 -8 -12 -9
-10 -4 6 3 12 -1 41 -10 65 -9 24 -23 67 -31 94 -9 28 -22 63 -30 78 -8 16
-14 35 -14 43 0 9 -5 12 -12 8 -6 -4 -8 -3 -5 3 3 5 0 29 -7 53 -7 24 -15 40
-18 35 -3 -6 -3 -4 -1 4 5 21 -19 111 -29 111 -5 0 -7 4 -4 9 3 5 -14 74 -38
154 -24 80 -50 179 -57 220 -7 42 -16 74 -20 72 -4 -3 -12 15 -18 40 -13 51
-14 95 -1 55 l8 -25 0 25 c0 14 -4 36 -8 50 -7 21 -8 22 -10 5 -1 -17 -3 -17
-11 5 -6 14 -8 45 -5 70 4 34 3 39 -4 23 -5 -13 -12 -23 -15 -23 -2 0 -4 10
-4 23 0 20 -7 62 -11 62 -1 0 -3 14 -4 32 -1 17 1 30 5 27 4 -2 7 -14 7 -26 2
-33 7 -56 15 -64 10 -10 10 -11 -17 196 -14 102 -29 197 -35 213 -26 67 -41
15 -72 -234 -11 -96 -23 -176 -25 -178 -2 -2 -8 7 -14 20 -9 21 -9 20 -5 -11
4 -31 4 -32 -5 -11 -6 13 -8 40 -4 60 5 30 4 34 -7 23 -12 -11 -15 -168 -19
-910 -3 -574 -8 -850 -13 -767 -13 221 -18 256 -36 253 -21 -4 -27 -61 -36
-374 -7 -244 -8 -253 -26 -243 -15 7 -19 6 -19 -6 0 -9 -9 -15 -21 -15 -17 0
-20 -5 -17 -25 6 -30 -10 -33 -20 -4 -8 21 -9 20 -34 -9 -14 -17 -29 -28 -32
-25 -3 4 -6 -1 -6 -9 0 -9 -7 -19 -16 -22 -11 -4 -19 3 -27 24 -13 35 -23 38
-33 8 -6 -19 -7 -19 -16 -5 -13 23 -48 4 -48 -26 0 -49 -39 -62 -40 -14 -1 19
-3 17 -14 -8 -7 -16 -16 -29 -19 -27 -15 5 -24 1 -45 -18 -21 -20 -22 -20 -22
-2 0 11 -9 22 -20 25 -15 4 -20 0 -20 -14 0 -17 -11 -24 -32 -20 -5 0 -8 -8
-8 -20 0 -11 -4 -18 -9 -15 -4 3 -17 -1 -27 -9 -25 -19 -34 -19 -34 0 0 20
-26 19 -34 -1 -5 -13 -9 -14 -21 -4 -11 9 -15 10 -15 1 0 -7 -7 -19 -15 -28
-14 -13 -17 -11 -30 21 -8 19 -15 41 -15 48 0 8 -5 6 -11 -4 -5 -10 -16 -15
-24 -12 -8 4 -15 1 -15 -6 0 -6 -4 -9 -9 -6 -5 4 -12 0 -14 -6 -3 -7 -6 3 -7
22 -1 31 -2 33 -14 18 -12 -16 -13 -16 -27 0 -32 39 -43 81 -74 275 -53 338
-89 666 -135 1217 -88 1060 -147 1595 -184 1682 l-14 33 -13 -30z m34 -160 c4
-44 3 -59 -3 -40 -8 31 -13 122 -6 114 2 -2 6 -35 9 -74z m1484 -537 c-3 -7
-5 -2 -5 12 0 14 2 19 5 13 2 -7 2 -19 0 -25z m10 -100 c-3 -8 -6 -5 -6 6 -1
11 2 17 5 13 3 -3 4 -12 1 -19z m10 -110 c-3 -7 -5 -2 -5 12 0 14 2 19 5 13 2
-7 2 -19 0 -25z m-1423 -236 c3 -5 -1 -9 -9 -9 -8 0 -12 4 -9 9 3 4 7 8 9 8 2
0 6 -4 9 -8z m15 -135 c8 -10 7 -14 -4 -14 -8 0 -12 4 -9 8 2 4 -2 10 -8 12
-8 4 -9 6 -2 6 6 1 17 -5 23 -12z m-2 -60 c-1 -18 2 -38 7 -45 12 -19 1 -14
-20 10 -10 12 -13 18 -6 14 8 -5 12 0 12 14 0 14 -4 19 -12 14 -9 -5 -9 -2 1
9 18 23 19 22 18 -16z m1497 -9 c4 -17 2 -28 -4 -28 -5 0 -10 14 -10 32 0 36
4 35 14 -4z m-1484 -79 c0 -5 -5 -9 -11 -9 -5 0 -7 5 -4 10 3 6 1 10 -4 10 -6
0 -11 5 -11 11 0 8 5 8 15 -1 8 -7 15 -16 15 -21z m1504 -22 c4 -19 3 -26 -4
-22 -5 3 -10 18 -10 32 0 32 5 28 14 -10z m-1509 -25 c-3 -3 -11 0 -18 7 -9
10 -8 11 6 5 10 -3 15 -9 12 -12z m3 -28 c1 -1 -5 -7 -15 -15 -12 -10 -15 -10
-9 -1 4 7 2 20 -6 30 -12 16 -11 16 7 2 11 -8 21 -15 23 -16z m1526 -19 c3 -8
1 -15 -4 -15 -6 0 -10 7 -10 15 0 8 2 15 4 15 2 0 6 -7 10 -15z m-1518 -15 c0
-12 -4 -16 -9 -11 -5 5 -6 14 -3 20 10 15 12 14 12 -9z m1531 -67 c-3 -10 -5
-2 -5 17 0 19 2 27 5 18 2 -10 2 -26 0 -35z m-1547 17 c0 -5 -2 -10 -4 -10 -3
0 -8 5 -11 10 -3 6 -1 10 4 10 6 0 11 -4 11 -10z m24 -116 c3 -8 2 -12 -4 -9
-6 3 -10 10 -10 16 0 14 7 11 14 -7z m11 -74 c-3 -5 -12 -10 -18 -10 -7 0 -6
4 3 10 19 12 23 12 15 0z m5 -66 c0 -8 -19 -13 -24 -6 -3 5 1 9 9 9 8 0 15 -2
15 -3z m1217 -1286 c-3 -7 -5 -2 -5 12 0 14 2 19 5 13 2 -7 2 -19 0 -25z
m1020 -60 c-3 -7 -5 -2 -5 12 0 14 2 19 5 13 2 -7 2 -19 0 -25z m-1340 -60
c-3 -7 -5 -2 -5 12 0 14 2 19 5 13 2 -7 2 -19 0 -25z m40 -170 c-3 -8 -6 -5
-6 6 -1 11 2 17 5 13 3 -3 4 -12 1 -19z m1380 -20 c-3 -8 -6 -5 -6 6 -1 11 2
17 5 13 3 -3 4 -12 1 -19z m0 -75 c-3 -10 -5 -4 -5 12 0 17 2 24 5 18 2 -7 2
-21 0 -30z m1260 -45 c-3 -7 -5 -2 -5 12 0 14 2 19 5 13 2 -7 2 -19 0 -25z
m-480 -60 c-3 -8 -6 -5 -6 6 -1 11 2 17 5 13 3 -3 4 -12 1 -19z m490 0 c-3 -8
-6 -5 -6 6 -1 11 2 17 5 13 3 -3 4 -12 1 -19z m-1690 -30 c-3 -8 -6 -5 -6 6
-1 11 2 17 5 13 3 -3 4 -12 1 -19z m318 12 c3 -5 1 -10 -4 -10 -6 0 -11 5 -11
10 0 6 2 10 4 10 3 0 8 -4 11 -10z m1222 -52 c-3 -8 -6 -5 -6 6 -1 11 2 17 5
13 3 -3 4 -12 1 -19z m-3440 -95 c-3 -10 -5 -4 -5 12 0 17 2 24 5 18 2 -7 2
-21 0 -30z m4540 -155 c-3 -8 -6 -5 -6 6 -1 11 2 17 5 13 3 -3 4 -12 1 -19z
m715 -4 c-12 -8 -27 -12 -32 -9 -17 10 -1 25 28 25 l26 0 -22 -16z m-2685 -66
c-3 -7 -5 -2 -5 12 0 14 2 19 5 13 2 -7 2 -19 0 -25z m2648 4 c-3 -3 -11 0
-18 7 -9 10 -8 11 6 5 10 -3 15 -9 12 -12z m-2658 -44 c-3 -8 -6 -5 -6 6 -1
11 2 17 5 13 3 -3 4 -12 1 -19z m2488 -38 c4 -6 13 -7 23 -1 12 6 23 5 35 -4
17 -12 17 -14 -2 -27 -12 -8 -18 -17 -15 -21 8 -8 -35 -29 -46 -22 -5 3 -12 1
-15 -5 -5 -8 -12 -7 -23 2 -10 8 -13 8 -9 1 4 -6 1 -14 -5 -16 -7 -3 4 -4 25
-2 20 1 40 -1 43 -6 5 -9 1 -10 -51 -13 -24 -1 -29 -5 -27 -20 3 -13 -1 -17
-12 -13 -24 9 -30 -12 -10 -34 9 -10 12 -19 6 -19 -6 0 -16 9 -22 21 -7 11
-14 18 -17 15 -4 -3 -13 0 -21 7 -13 10 -14 9 -7 -2 5 -9 4 -12 -2 -8 -5 3
-10 0 -10 -7 0 -15 14 -15 36 -2 9 6 12 5 9 -5 -3 -8 -11 -14 -19 -14 -8 0
-17 -4 -20 -8 -3 -4 -12 -1 -19 8 -7 8 -8 15 -3 15 5 0 10 7 10 15 0 8 -3 15
-6 15 -9 0 -36 -44 -33 -53 1 -5 -2 -6 -8 -2 -5 3 -8 0 -7 -7 2 -7 2 -10 0 -5
-3 4 -14 -3 -25 -15 -11 -13 -16 -16 -12 -8 7 13 5 13 -9 1 -9 -7 -17 -19 -17
-25 0 -6 5 -4 10 4 5 8 10 11 10 6 0 -5 7 -2 16 5 21 17 44 20 44 6 0 -7 5 -4
11 6 8 13 7 22 -1 33 -17 19 -1 18 21 -2 17 -15 16 -17 -9 -39 -19 -17 -31
-20 -39 -13 -9 7 -17 5 -28 -5 -8 -9 -27 -14 -43 -13 -15 2 -30 -2 -35 -8 -5
-7 -13 -4 -26 11 -11 14 -22 18 -31 13 -7 -4 -20 -5 -29 -2 -14 5 -14 4 -1
-10 8 -9 20 -13 25 -8 6 4 24 -2 40 -12 17 -11 23 -18 15 -15 -17 5 -54 -17
-56 -33 -1 -6 -2 -14 -3 -19 -2 -18 -34 -42 -48 -37 -35 14 -102 -45 -96 -84
3 -23 3 -23 -16 -6 -26 23 -49 11 -26 -14 14 -15 14 -18 1 -23 -14 -6 -33 26
-28 46 1 5 -2 6 -8 2 -6 -3 -8 -10 -5 -15 3 -4 -2 -13 -10 -20 -17 -14 -21
-35 -4 -25 6 4 5 -2 -2 -13 -10 -16 -16 -18 -26 -10 -7 6 -13 16 -13 22 0 6 5
4 11 -4 9 -13 10 -13 6 2 -3 9 -3 19 1 21 4 2 1 2 -6 0 -7 -1 -11 1 -8 5 3 5
-1 9 -9 9 -8 0 -11 -5 -8 -10 4 -6 1 -7 -8 -2 -11 6 -12 5 -1 -6 15 -16 16
-39 1 -39 -6 0 -9 7 -6 15 4 8 2 17 -3 20 -5 3 -6 13 -3 23 6 14 4 15 -8 5 -8
-7 -25 -11 -37 -10 -26 2 -18 12 11 12 11 0 22 5 24 12 2 6 -4 10 -14 9 -10
-2 -12 -1 -5 1 6 3 12 9 12 14 0 5 5 9 10 9 6 0 9 -3 9 -7 -3 -19 2 -33 11
-33 11 0 9 28 -3 48 -5 6 -4 12 1 12 5 0 15 -11 22 -25 7 -14 17 -25 22 -25
12 0 5 23 -12 37 -8 6 -12 15 -7 19 4 4 7 2 7 -5 0 -7 5 -9 10 -6 6 3 10 1 10
-5 0 -6 5 -8 10 -5 6 4 8 11 4 16 -3 5 6 19 20 30 26 21 37 46 14 33 -7 -4 -9
-3 -5 1 14 15 39 15 33 -1 -6 -16 10 -19 19 -4 4 6 1 18 -7 27 -11 14 -11 16
1 8 10 -6 13 -4 9 6 -6 14 4 17 65 20 9 0 17 6 17 14 0 8 4 17 10 20 6 4 9 -3
7 -16 -1 -12 3 -23 8 -26 6 -2 11 11 10 29 0 22 5 33 15 34 8 1 21 2 28 3 7 0
10 6 7 11 -4 6 -11 7 -17 4 -7 -5 -8 -2 -4 5 6 9 13 8 27 -5 10 -9 19 -12 19
-6 0 6 -4 14 -10 17 -5 3 -10 11 -10 18 0 6 7 2 15 -10 19 -26 40 -21 42 10 2
21 1 21 -13 3 -17 -24 -19 -13 -2 13 11 18 13 18 25 3 8 -12 12 -13 13 -4 0 7
11 0 25 -15 13 -15 25 -23 25 -17 0 6 -7 17 -15 24 -19 16 -19 30 1 30 8 0 13
4 9 9 -3 5 0 13 6 17 8 5 9 3 5 -5 -6 -8 -2 -11 10 -9 24 4 35 19 24 33 -6 7
-2 11 12 12 12 1 25 9 30 17 6 11 19 14 45 10 30 -3 35 -2 25 8 -14 14 -16 38
-2 38 5 0 7 -6 4 -13 -3 -8 2 -19 10 -26 12 -10 14 -7 12 24 -3 29 -1 33 10
24 11 -9 14 -8 14 3 0 15 19 38 31 38 4 0 11 -5 14 -10z m-115 -61 c0 -4 -9
-7 -19 -6 -11 0 -18 4 -16 7 6 9 35 8 35 -1z m-64 -27 c-17 -16 -18 -16 -5 5
7 12 15 20 18 17 3 -2 -3 -12 -13 -22z m-5131 -180 c-3 -3 -11 0 -18 7 -9 10
-8 11 6 5 10 -3 15 -9 12 -12z m180 9 c3 -5 2 -12 -3 -15 -5 -3 -9 1 -9 9 0
17 3 19 12 6z m42 -33 c2 -17 0 -19 -7 -8 -5 8 -6 18 -4 22 8 12 10 10 11 -14z
m-217 -10 c0 -11 -12 -10 -30 2 -12 7 -10 9 8 7 12 0 22 -5 22 -9z m86 -3 c-8
-7 -12 -16 -8 -20 4 -5 2 -5 -5 -1 -16 9 -6 33 14 33 14 0 14 -1 -1 -12z m154
-5 c-6 -11 -13 -20 -16 -20 -2 0 0 9 6 20 6 11 13 20 16 20 2 0 0 -9 -6 -20z
m36 -6 c1 -9 0 -13 -4 -10 -3 4 -7 14 -8 22 -1 9 0 13 4 10 3 -4 7 -14 8 -22z
m4764 16 c0 -5 -4 -10 -10 -10 -5 0 -10 5 -10 10 0 6 5 10 10 10 6 0 10 -4 10
-10z m-5009 -23 c-10 -9 -11 -8 -5 6 3 10 9 15 12 12 3 -3 0 -11 -7 -18z m-60
-8 c6 -13 7 -19 1 -15 -6 3 -12 0 -15 -6 -2 -7 -4 -1 -3 14 1 34 2 34 17 7z
m169 11 c0 -5 -4 -10 -8 -10 -4 0 -8 -9 -9 -21 -2 -16 1 -18 12 -9 9 8 20 8
31 2 12 -7 22 -6 32 4 7 8 19 14 25 14 6 0 1 -7 -11 -16 -12 -8 -22 -20 -22
-25 0 -6 12 -1 26 10 15 11 30 18 35 15 5 -3 9 -1 9 5 0 5 -5 12 -10 14 -6 3
-5 4 2 3 7 -2 13 -9 13 -17 0 -8 -6 -13 -12 -11 -7 1 -13 -5 -13 -13 0 -21 18
-19 32 5 17 26 24 25 62 -7 17 -15 23 -24 14 -20 -21 8 -50 -2 -43 -14 3 -4
12 -6 20 -2 22 8 18 -8 -10 -42 -18 -22 -27 -27 -36 -18 -14 14 -2 36 17 29
22 -8 16 0 -12 19 -15 9 -23 11 -19 4 5 -7 4 -10 -3 -5 -6 3 -13 2 -16 -3 -4
-5 -2 -12 4 -16 5 -3 10 -12 10 -18 -1 -7 -10 -1 -21 13 -16 18 -31 25 -58 25
-20 0 -42 4 -48 8 -8 5 -13 3 -14 -5 0 -9 -2 -10 -5 -1 -3 7 -13 9 -22 6 -15
-4 -15 -3 -2 6 13 9 13 11 0 11 -13 0 -13 1 0 11 10 7 11 9 2 7 -8 -2 -12 -6
-11 -8 1 -3 -3 -15 -10 -28 -8 -15 -18 -21 -28 -18 -9 4 -23 1 -31 -6 -9 -8
-13 -8 -9 -2 4 7 0 17 -8 24 -12 10 -15 10 -15 -1 0 -11 -2 -11 -9 1 -6 8 -7
18 -4 24 3 5 1 6 -5 2 -6 -4 -9 -13 -5 -21 5 -15 -2 -18 -39 -18 -10 0 -15 -4
-11 -11 4 -6 -2 -4 -13 4 -17 14 -18 14 -6 -2 12 -15 10 -21 -11 -44 -24 -25
-25 -25 -50 -10 -31 21 -47 4 -22 -24 16 -18 16 -19 -6 -18 -13 1 -29 6 -36
11 -7 5 -17 6 -24 2 -6 -4 -25 -9 -42 -11 -49 -5 -64 -9 -81 -23 -10 -8 -16
-9 -16 -3 0 6 -9 9 -20 7 -22 -4 -36 10 -20 20 8 5 7 11 -1 21 -11 13 -6 28 9
29 4 1 17 4 30 9 23 8 29 21 12 29 -6 3 -5 4 2 3 7 -2 12 -13 10 -26 -2 -19 0
-21 13 -10 9 8 13 21 10 34 -6 21 -6 21 6 1 14 -22 29 -35 43 -35 5 0 -1 11
-14 25 -19 20 -21 28 -11 38 10 9 11 8 5 -8 -4 -11 -4 -17 1 -13 4 4 15 2 23
-5 13 -10 15 -9 10 4 -3 9 -2 22 4 30 8 11 9 11 4 -3 -9 -28 10 -30 23 -2 6
14 15 23 20 20 5 -4 12 -1 14 4 3 6 4 5 3 -2 -2 -7 -9 -12 -15 -11 -6 2 -11
-1 -11 -5 0 -20 15 -20 41 -1 31 22 39 17 14 -7 -19 -20 -19 -31 0 -31 9 0 14
6 11 13 -3 8 0 11 9 8 10 -4 13 2 10 25 -2 17 -7 37 -11 43 -4 7 -3 8 4 4 7
-4 12 -12 12 -17 0 -12 29 -44 31 -35 5 22 4 33 -4 43 -10 14 18 31 30 19 4
-3 -2 -6 -12 -6 -13 0 -15 -3 -6 -13 6 -8 7 -17 3 -22 -4 -4 0 -6 8 -3 8 3 15
11 15 19 0 7 8 14 18 15 11 1 12 0 3 -3 -9 -2 -12 -11 -9 -19 5 -13 7 -13 14
-3 4 8 11 10 16 6 11 -11 -17 -26 -36 -19 -14 5 -14 3 -2 -11 13 -17 42 -24
39 -9 0 4 2 15 7 25 6 15 10 16 16 5 7 -10 9 -9 9 5 0 14 5 17 20 12 11 -3 20
-2 20 4 0 5 -8 12 -17 15 -14 4 -14 4 2 3 11 -1 26 2 33 6 6 5 18 5 25 0 22
-14 38 -12 50 8 13 20 27 25 27 9z m49 -20 c-7 -5 -19 -6 -26 -3 -11 5 -12 8
-2 13 7 5 19 6 26 3 11 -5 12 -8 2 -13z m156 0 c-3 -5 -12 -10 -18 -10 -7 0
-6 4 3 10 19 12 23 12 15 0z m80 -40 c3 -5 2 -10 -4 -10 -5 0 -13 5 -16 10 -3
6 -2 10 4 10 5 0 13 -4 16 -10z m4265 0 c0 -5 -4 -10 -10 -10 -5 0 -10 5 -10
10 0 6 5 10 10 10 6 0 10 -4 10 -10z m-4233 -15 c0 -8 -4 -15 -9 -15 -10 0
-11 14 -1 23 9 10 10 9 10 -8z m-177 -41 c0 -8 -19 -13 -24 -6 -3 5 1 9 9 9 8
0 15 -2 15 -3z m-344 -20 c-13 -9 -14 -13 -4 -17 9 -4 9 -6 1 -6 -14 -1 -26
16 -19 27 3 5 13 9 22 9 16 0 16 -1 0 -13z m-346 -4 c0 -5 -5 -10 -11 -10 -5
0 -7 5 -4 10 3 6 8 10 11 10 2 0 4 -4 4 -10z m985 -20 c3 -5 1 -10 -4 -10 -6
0 -11 5 -11 10 0 6 2 10 4 10 3 0 8 -4 11 -10z m3962 4 c-3 -3 -12 -4 -19 -1
-8 3 -5 6 6 6 11 1 17 -2 13 -5z m-4085 -32 c8 -6 18 -9 21 -5 4 3 7 1 7 -6 0
-7 4 -10 8 -7 4 2 8 -4 8 -15 0 -17 -2 -18 -11 -6 -5 8 -18 13 -27 11 -10 -1
-17 1 -17 4 3 19 -2 33 -9 28 -4 -2 -14 0 -22 5 -12 7 -10 8 7 6 11 -2 28 -8
35 -15z m4070 1 c2 -11 14 -18 33 -19 47 -2 50 -3 37 -16 -13 -13 -16 -32 -4
-24 12 7 38 -12 28 -21 -5 -4 -11 -2 -13 5 -3 8 -11 5 -24 -10 -10 -13 -19
-21 -19 -18 -8 35 -7 41 5 36 9 -3 12 0 8 10 -4 11 -8 12 -19 3 -8 -7 -12 -14
-10 -17 8 -8 -22 -59 -38 -65 -10 -4 -13 -13 -10 -24 5 -16 4 -16 -10 1 -9 11
-14 29 -11 40 3 12 2 15 -1 8 -3 -6 -10 -10 -15 -7 -5 4 -6 -2 -2 -11 5 -13 3
-15 -7 -9 -9 5 -11 4 -6 -4 4 -6 11 -9 16 -6 11 7 21 -21 14 -40 -4 -8 -10
-13 -15 -10 -4 3 -6 12 -2 20 3 9 -1 15 -10 15 -11 0 -14 7 -11 26 4 22 2 25
-16 19 -13 -4 -20 -2 -20 6 0 7 3 9 7 6 3 -4 17 0 31 9 14 9 21 11 17 4 -5 -8
-3 -11 5 -8 14 4 23 38 11 38 -4 0 -16 -7 -27 -15 -22 -17 -44 -19 -44 -5 0 5
6 7 13 4 7 -2 22 4 34 15 19 18 23 18 34 5 6 -8 14 -12 17 -9 3 2 -1 11 -7 19
-16 19 4 32 24 16 20 -16 19 -5 -1 25 -9 14 -12 25 -6 25 6 0 12 -8 14 -17z
m-3959 -67 c-7 -27 -11 -29 -21 -9 -10 18 -9 21 6 19 9 -2 16 -6 15 -10z m172
4 c3 -6 -1 -7 -9 -4 -18 7 -21 14 -7 14 6 0 13 -4 16 -10z m-55 -72 c0 15 45
7 74 -12 34 -22 23 -38 -29 -42 -32 -2 -38 2 -52 32 -18 37 -28 42 -37 19 -3
-8 -11 -15 -17 -15 -7 0 -5 8 6 20 15 16 16 23 5 37 -7 10 1 3 19 -15 17 -18
31 -28 31 -24z m160 38 c0 -2 -7 -7 -16 -10 -8 -3 -12 -2 -9 4 6 10 25 14 25
6z m3502 -3 c-6 -2 -9 -10 -6 -15 4 -7 2 -8 -5 -4 -13 9 -5 26 12 25 9 0 8 -2
-1 -6z m-3452 -117 c0 5 7 0 16 -11 8 -11 19 -20 24 -20 6 0 10 -3 10 -7 0
-19 -53 8 -70 35 -12 20 -12 21 3 8 10 -7 17 -10 17 -5z m290 -16 c0 -5 -8
-10 -17 -10 -15 0 -16 2 -3 10 19 12 20 12 20 0z m3151 -3 c-8 -10 -7 -17 1
-25 9 -9 9 -15 0 -24 -7 -7 -12 -9 -12 -5 0 4 -9 -2 -20 -13 -26 -26 -36 -25
-36 4 0 20 3 23 17 15 18 -9 38 6 25 18 -3 4 1 15 11 25 18 21 31 25 14 5z
m-176 -17 c-3 -5 -12 -10 -18 -10 -7 0 -6 4 3 10 19 12 23 12 15 0z m-2775
-59 c0 -15 -32 -23 -44 -11 -8 8 -6 9 7 5 10 -4 17 -2 17 4 0 6 5 11 10 11 6
0 10 -4 10 -9z m2856 -3 c4 -7 4 -10 -1 -6 -11 11 -36 -12 -28 -25 4 -6 1 -7
-6 -3 -9 6 -8 13 5 27 20 22 21 23 30 7z m-2839 -22 c-3 -8 2 -20 10 -28 14
-11 16 -11 10 4 -9 24 17 42 33 23 7 -9 10 -18 7 -22 -4 -3 -9 2 -13 11 -3 9
-10 13 -16 10 -5 -3 -4 -11 2 -19 13 -16 4 -39 -11 -30 -5 4 -9 0 -9 -7 0 -10
-2 -10 -9 1 -6 10 -10 10 -16 1 -6 -9 -10 -9 -17 1 -8 11 -9 11 -5 -1 2 -8 10
-14 17 -12 7 2 20 -4 30 -13 9 -8 20 -12 25 -8 4 5 5 3 2 -3 -3 -6 0 -11 8
-11 11 0 12 4 4 14 -6 7 -15 11 -19 8 -5 -3 -11 -1 -15 5 -3 5 1 10 10 10 8 0
18 7 21 15 6 14 8 13 20 -2 12 -16 13 -14 9 15 l-4 32 28 -19 c22 -16 31 -18
41 -8 10 9 11 9 6 0 -4 -8 -2 -13 5 -13 10 0 10 -3 1 -12 -18 -18 -15 -33 4
-17 8 7 13 21 11 31 -3 10 -1 16 4 12 5 -3 9 -11 9 -19 0 -8 9 -13 20 -12 11
1 20 5 20 9 0 4 5 8 11 8 8 0 8 -4 0 -14 -7 -9 -8 -17 -2 -20 5 -3 11 -1 13 5
2 5 11 7 20 4 10 -4 14 -13 11 -23 -5 -14 -3 -15 8 -4 20 19 31 14 23 -10 -6
-20 -5 -21 9 -9 9 7 14 18 10 24 -3 5 -1 7 5 3 5 -3 12 -2 14 4 2 6 9 0 17
-12 13 -21 13 -22 -2 -9 -20 16 -22 3 -3 -21 14 -19 32 -25 21 -8 -3 6 -1 10
4 10 19 0 12 -19 -10 -31 -17 -9 -20 -8 -13 3 6 11 5 11 -9 -1 -9 -7 -17 -19
-17 -25 0 -7 3 -7 8 -1 11 15 45 19 40 4 -2 -6 -16 -13 -31 -15 -20 -2 -27 2
-28 14 0 12 -2 13 -6 3 -4 -10 -7 -10 -13 -1 -11 18 -59 19 -76 2 -8 -8 -18
-12 -21 -8 -4 3 1 12 10 19 15 11 10 40 -7 38 -3 -1 -6 2 -7 7 -1 10 -29 25
-36 18 -4 -3 -1 -6 6 -6 7 0 9 -5 5 -11 -4 -8 -9 -7 -15 2 -6 10 -10 7 -17
-11 l-9 -24 -17 26 c-19 30 -40 31 -60 3 -13 -18 -14 -18 -25 4 -7 12 -18 20
-26 18 -7 -3 -21 2 -31 11 -11 10 -26 17 -34 16 -43 -3 -44 -4 -25 -17 10 -8
14 -17 8 -20 -5 -3 -17 8 -27 24 -14 24 -21 28 -32 18 -11 -9 -15 -8 -20 4 -6
16 -20 17 -41 4 -19 -12 -16 3 5 26 10 12 11 17 3 12 -10 -6 -12 -4 -6 5 5 9
4 11 -4 6 -6 -4 -9 -12 -6 -17 7 -11 3 -11 -19 -3 -9 3 -16 10 -16 16 0 5 5 6
10 3 6 -3 10 -2 10 4 0 14 26 7 48 -12 14 -13 21 -14 30 -5 7 7 12 8 12 4 0
-5 7 -3 15 4 14 12 20 5 17 -22 -3 -19 30 -14 48 9 18 23 26 19 21 -9 -1 -10
13 -10 22 -1 4 3 2 12 -4 19 -6 7 -8 18 -4 24 9 15 18 12 12 -4z m2774 -14
c-5 -9 -18 -25 -28 -35 -16 -14 -20 -14 -20 -2 0 8 4 12 8 9 5 -2 16 7 25 21
19 29 29 34 15 7z m-2516 -13 c-4 -5 -12 -9 -18 -8 -9 0 -8 2 1 6 6 2 9 10 6
15 -4 7 -2 8 5 4 6 -4 9 -12 6 -17z m45 -45 c0 -2 -9 0 -20 6 -11 6 -20 13
-20 16 0 2 9 0 20 -6 11 -6 20 -13 20 -16z m20 11 c0 -8 -2 -15 -4 -15 -2 0
-6 7 -10 15 -3 8 -1 15 4 15 6 0 10 -7 10 -15z m40 11 c0 -2 -7 -7 -16 -10 -8
-3 -12 -2 -9 4 6 10 25 14 25 6z m2225 -15 c-3 -6 -14 -10 -23 -10 -15 1 -15
2 1 6 9 2 17 9 17 15 0 6 3 9 6 5 3 -3 3 -10 -1 -16z m-2204 -19 c3 1 17 -7
32 -19 15 -12 23 -24 18 -27 -5 -3 -11 1 -15 9 -3 9 -12 12 -23 9 -15 -5 -16
-4 -3 5 15 10 13 12 -12 15 -6 0 -13 8 -15 16 -4 12 -3 12 5 2 5 -8 11 -12 13
-10z m73 -14 c-3 -4 -9 -8 -15 -8 -5 0 -9 4 -9 8 0 5 7 9 15 9 8 0 12 -4 9 -9z
m2056 2 c-8 -5 -19 -10 -25 -10 -5 0 -3 5 5 10 8 5 20 10 25 10 6 0 3 -5 -5
-10z m-1809 -83 c-10 -9 -11 -8 -5 6 3 10 9 15 12 12 3 -3 0 -11 -7 -18z m37
-12 c-3 -3 -9 2 -12 12 -6 14 -5 15 5 6 7 -7 10 -15 7 -18z m-273 -5 c4 -6 10
-8 15 -5 5 3 11 1 15 -4 3 -5 14 -8 24 -6 10 2 18 -3 18 -10 0 -8 -5 -11 -11
-7 -16 10 -29 9 -44 -1 -8 -7 -17 -6 -24 1 -6 6 -16 8 -23 6 -7 -3 -16 -1 -19
4 -3 5 6 8 19 6 26 -2 34 11 13 19 -10 4 -10 6 -1 6 6 1 15 -4 18 -9z m319 2
c2 -4 -5 -9 -17 -9 -17 -2 -19 0 -7 7 18 12 18 12 24 2z m413 -72 c-2 -23 -10
-17 -12 10 -1 10 2 17 6 14 4 -2 7 -13 6 -24z m-594 -19 c-4 -14 -3 -14 5 -1
6 8 8 18 5 24 -3 5 -1 6 5 2 6 -3 13 -2 17 4 7 11 33 9 53 -3 7 -5 9 -14 5
-20 -4 -7 0 -6 10 2 11 9 17 9 17 2 0 -6 10 -11 23 -11 41 0 57 -3 57 -12 0
-5 9 -7 19 -3 11 3 26 -1 35 -10 9 -9 20 -14 25 -11 5 3 14 0 20 -8 9 -10 7
-17 -5 -27 -15 -12 -16 -11 -10 11 6 19 5 21 -3 10 -9 -13 -13 -12 -25 6 -12
16 -24 21 -48 19 -53 -4 -54 -5 -39 -14 7 -5 10 -14 7 -20 -10 -16 -26 -14
-20 3 7 19 -36 63 -46 46 -9 -15 -43 16 -34 33 3 7 -2 3 -10 -7 -15 -18 -20
-15 -17 9 1 6 -5 1 -14 -9 -8 -10 -12 -22 -10 -26 3 -5 -2 -10 -9 -13 -17 -7
-32 11 -30 33 3 33 5 35 13 21 5 -8 7 -21 4 -30z m631 31 c3 -5 -1 -9 -9 -9
-8 0 -12 4 -9 9 3 4 7 8 9 8 2 0 6 -4 9 -8z m-120 -14 c-5 -8 -2 -9 9 -5 10 3
17 2 17 -3 0 -12 -27 -13 -34 -1 -3 4 -3 11 1 15 10 10 15 7 7 -6z m1115 -18
c-6 -5 -18 -6 -26 -3 -19 8 -16 11 13 11 17 0 22 -3 13 -8z m-951 -25 c-3 -3
-9 2 -12 12 -6 14 -5 15 5 6 7 -7 10 -15 7 -18z m-61 9 c-3 -3 -12 -4 -19 -1
-8 3 -5 6 6 6 11 1 17 -2 13 -5z m-247 -29 c0 4 7 2 15 -5 12 -10 15 -10 15 1
0 11 2 11 10 -1 13 -21 12 -27 -5 -27 -8 0 -15 5 -15 10 0 5 -5 5 -13 -1 -16
-13 -31 -3 -33 21 -2 14 1 15 12 6 8 -6 14 -8 14 -4z m570 -19 c0 -2 -9 -6
-20 -9 -11 -3 -18 -1 -14 4 5 9 34 13 34 5z m17 -10 c-4 -10 2 -16 16 -19 12
-2 5 -4 -15 -4 -21 0 -38 4 -38 9 0 5 5 6 10 3 6 -3 13 1 16 9 3 9 8 16 11 16
3 0 3 -6 0 -14z m-447 -16 c0 -5 -2 -10 -4 -10 -3 0 -8 5 -11 10 -3 6 -1 10 4
10 6 0 11 -4 11 -10z m90 -20 c-13 -24 -14 -24 -31 -3 -12 15 -12 16 3 10 10
-3 20 -2 23 3 12 19 16 10 5 -10z m90 -35 c-11 -13 -15 -13 -21 -3 -7 11 -9
11 -9 0 0 -7 -5 -10 -10 -7 -6 4 -1 14 12 25 27 22 48 10 28 -15z m-152 13
c-2 -6 -10 -14 -16 -16 -7 -2 -10 2 -6 12 7 18 28 22 22 4z m216 -13 c-5 -12
-34 -17 -34 -5 0 11 9 17 24 17 8 0 12 -6 10 -12z m100 -15 c4 0 4 5 0 12 -5
7 -3 8 7 2 18 -11 31 -12 45 -3 6 5 10 -1 10 -15 0 -18 -4 -22 -23 -18 -13 2
-23 9 -23 15 0 6 -6 3 -13 -8 -15 -20 -25 -11 -32 27 -4 21 -3 22 9 6 7 -10
16 -18 20 -18z m191 -22 c4 -4 17 -4 30 -2 13 2 27 0 30 -6 4 -6 10 -8 15 -5
18 11 20 -14 2 -27 -10 -7 -23 -22 -29 -32 -10 -19 -11 -19 -22 2 -7 14 -8 23
-1 27 5 3 10 1 10 -5 0 -6 5 -8 11 -4 8 4 7 9 -2 15 -7 4 -10 11 -6 15 3 4 15
1 24 -7 16 -13 17 -12 5 3 -15 18 -52 21 -45 3 2 -7 -3 -17 -10 -24 -12 -9
-20 -6 -40 18 -20 24 -27 28 -36 17 -6 -7 -8 -16 -4 -19 3 -4 2 -7 -4 -7 -6 0
-13 9 -16 19 -3 13 0 18 8 15 7 -3 16 -1 19 4 6 10 51 10 61 0z m167 -27 c-4
-10 -7 -11 -10 -3 -2 8 -10 4 -22 -10 l-18 -23 1 26 c2 22 7 26 28 25 19 0 25
-5 21 -15z"/>
<path d="M5746 1511 c-3 -5 -3 -17 0 -26 4 -8 3 -15 -2 -14 -18 3 -34 -1 -34
-10 0 -7 24 -8 51 -2 9 2 6 31 -3 31 -5 0 -6 5 -2 11 4 8 9 7 16 -2 8 -12 9
-11 6 0 -5 18 -24 25 -32 12z"/>
<path d="M5791 1499 c-11 -12 -17 -28 -13 -37 4 -11 7 -12 10 -4 2 7 7 10 12
7 5 -3 7 3 5 12 -4 25 6 38 16 22 6 -10 9 -10 9 -2 0 22 -19 23 -39 2z"/>
<path d="M5625 1420 c3 -5 11 -10 16 -10 6 0 7 5 4 10 -3 6 -11 10 -16 10 -6
0 -7 -4 -4 -10z"/>
<path d="M5657 1417 c-3 -9 -14 -16 -24 -15 -34 3 -50 -2 -50 -15 0 -8 15 -12
46 -11 25 1 48 3 51 4 3 1 9 2 13 1 5 -1 6 3 3 8 -4 5 -2 12 4 16 6 4 8 11 4
16 -4 6 -11 6 -19 -1 -10 -8 -14 -8 -17 2 -3 8 -7 6 -11 -5z m28 -17 c-17 -19
-41 -18 -29 1 3 5 9 7 14 4 5 -3 11 -1 15 5 3 5 9 10 12 10 3 0 -2 -9 -12 -20z
m-51 -8 c3 -5 -1 -9 -9 -9 -8 0 -12 4 -9 9 3 4 7 8 9 8 2 0 6 -4 9 -8z"/>
<path d="M5530 1345 c-18 -10 -19 -13 -7 -23 11 -9 18 -7 36 11 24 26 9 32
-29 12z m30 1 c0 -2 -8 -10 -17 -17 -16 -13 -17 -12 -4 4 13 16 21 21 21 13z"/>
<path d="M5471 1311 c-7 -5 -12 -11 -12 -15 3 -19 0 -27 -7 -22 -13 8 -35 -11
-27 -23 4 -8 11 -9 18 -2 7 5 17 11 22 12 6 2 18 10 28 19 14 14 15 19 4 28
-7 6 -18 7 -26 3z"/>
<path d="M5386 1231 c-4 -5 -14 -7 -23 -4 -12 5 -15 2 -10 -10 7 -19 -9 -32
-26 -20 -15 10 -38 10 -54 0 -7 -5 -17 -5 -23 -2 -9 6 -14 -8 -11 -29 3 -14
-22 -37 -35 -32 -6 2 -22 -6 -35 -20 -21 -22 -18 -29 12 -26 3 1 6 -6 6 -13 0
-11 -4 -12 -14 -4 -15 13 -44 -5 -40 -24 1 -7 -6 -12 -15 -12 -9 0 -20 -4 -25
-9 -4 -5 -3 -7 2 -3 6 3 17 2 25 -3 10 -6 17 -2 25 13 6 12 17 22 25 22 8 0
16 4 17 9 2 10 24 26 38 26 5 0 4 -5 -3 -12 -15 -15 -15 -28 -1 -28 5 0 8 4 5
9 -3 5 1 14 9 21 8 7 15 19 15 27 0 8 4 12 9 9 5 -3 25 5 44 18 23 16 34 19
30 10 -3 -8 0 -14 7 -14 6 0 8 5 5 10 -3 6 2 10 12 10 17 1 17 1 0 11 -12 7
-22 7 -30 0 -10 -7 -13 -5 -14 10 -1 10 3 19 8 19 6 0 8 -3 6 -8 -3 -4 8 -7
23 -7 16 -1 27 2 24 6 -2 4 6 15 18 23 16 12 19 19 11 27 -7 7 -13 7 -17 0z
m14 -4 c0 -2 -12 -14 -27 -28 -15 -13 -22 -17 -15 -8 6 9 8 20 4 24 -4 5 -2 5
5 1 6 -3 14 -2 18 4 6 10 15 14 15 7z m-95 -66 c2 -12 0 -19 -5 -16 -4 3 -10
0 -12 -5 -2 -6 -10 -12 -18 -13 -25 -4 -41 -18 -33 -30 4 -7 -1 -6 -10 2 -16
13 -16 15 -1 32 9 10 25 16 37 14 21 -4 21 -4 -2 14 l-24 19 27 -3 c22 -3 26
0 21 13 -4 12 -3 14 5 6 6 -6 12 -20 15 -33z m-109 -50 c-4 -5 0 -11 6 -14 7
-3 3 -4 -9 -4 -25 1 -30 12 -10 20 18 8 19 8 13 -2z"/>
<path d="M5276 1158 c3 -5 10 -6 15 -3 13 9 11 12 -6 12 -8 0 -12 -4 -9 -9z"/>
<path d="M5229 1123 c-13 -16 -12 -17 4 -4 9 7 17 15 17 17 0 8 -8 3 -21 -13z"/>
<path d="M500 1160 c-6 -12 -17 -19 -24 -17 -7 3 -18 -5 -26 -16 -7 -12 -9
-19 -5 -15 5 4 14 3 22 -4 8 -6 26 -13 40 -14 20 -2 24 1 20 15 -2 11 4 23 15
30 21 13 33 8 33 -12 0 -7 6 -13 13 -13 6 -1 14 -3 17 -4 15 -8 72 -5 84 4 11
8 13 8 8 -1 -11 -18 9 -25 23 -8 11 13 16 12 40 -5 21 -15 31 -17 36 -9 4 7 3
10 -2 6 -5 -3 -17 1 -27 8 -18 13 -17 14 2 20 23 7 27 20 11 30 -6 4 -23 -5
-37 -20 -26 -25 -27 -25 -37 -7 -10 18 -13 18 -25 5 -11 -13 -16 -12 -32 6
-25 27 -33 26 -51 -1 -15 -22 -15 -22 -13 10 1 25 -1 30 -12 21 -7 -6 -13 -8
-13 -3 0 4 -6 0 -13 -10 -12 -17 -14 -17 -28 1 -13 17 -13 17 5 3 16 -13 19
-13 15 -1 -8 24 -27 24 -39 1z m15 -38 c2 -22 -29 -23 -48 -2 -7 8 -8 10 -1 7
7 -4 17 0 24 8 15 18 23 13 25 -13z m129 10 c15 -18 15 -19 -9 -18 -14 1 -25
5 -25 9 0 4 0 12 0 17 0 16 15 12 34 -8z"/>
<path d="M489 1123 c-13 -16 -12 -17 4 -4 9 7 17 15 17 17 0 8 -8 3 -21 -13z"/>
<path d="M616 1132 c-3 -5 1 -9 9 -9 8 0 12 4 9 9 -3 4 -7 8 -9 8 -2 0 -6 -4
-9 -8z"/>
<path d="M336 1098 c-10 -15 -14 -17 -10 -5 4 9 1 17 -5 17 -6 0 -10 -3 -9 -7
2 -5 -5 -18 -14 -31 -11 -17 -17 -20 -21 -10 -4 10 -6 10 -6 1 -1 -7 -5 -13
-10 -13 -5 0 -8 11 -6 25 2 19 -1 23 -10 15 -9 -7 -15 -8 -19 -1 -4 6 -15 2
-27 -10 -17 -17 -23 -18 -37 -7 -13 9 -12 7 2 -10 11 -12 17 -23 15 -23 -20
-7 -49 -4 -49 4 0 5 -7 4 -15 -3 -9 -7 -13 -20 -10 -29 3 -8 3 -12 -1 -9 -4 4
-16 3 -28 -3 -20 -10 -20 -9 -2 5 23 19 12 40 -13 26 -10 -5 -21 -6 -25 -3 -3
3 -6 1 -6 -6 0 -8 6 -11 16 -7 15 6 15 4 1 -18 -14 -20 -14 -24 -2 -22 8 1 18
5 21 9 12 12 26 8 18 -5 -6 -10 -5 -10 8 -1 8 7 19 9 23 5 5 -4 5 -1 1 6 -6 9
-1 11 18 8 24 -4 52 15 39 27 -3 4 -2 7 4 7 6 0 14 -8 18 -17 6 -17 7 -17 21
1 8 11 14 17 14 13 0 -4 10 -2 23 5 12 7 26 11 30 10 4 -1 10 4 13 13 5 13 8
13 21 -1 19 -19 50 1 33 21 -13 15 -3 24 23 20 15 -3 16 -1 6 11 -16 19 -24
18 -43 -8z m-121 -27 c-3 -5 -1 -12 5 -16 5 -3 10 -1 10 4 0 6 4 11 9 11 5 0
8 -8 7 -17 -2 -10 -8 -18 -15 -18 -6 0 -16 -7 -21 -15 -7 -10 -10 -11 -11 -2
-1 6 -2 18 -3 25 -1 6 2 18 7 25 11 14 21 17 12 3z m130 -3 c4 -3 2 -9 -3 -12
-5 -3 -15 1 -21 8 -10 11 -9 14 3 12 9 -1 18 -5 21 -8z m-204 -47 c7 11 9 11
9 1 0 -7 5 -10 12 -6 6 4 8 3 5 -4 -4 -5 -15 -9 -25 -7 -9 2 -21 4 -25 4 -5 1
-5 6 -1 13 6 9 9 9 12 -1 4 -11 6 -11 13 0z"/>
<path d="M203 1045 c0 -8 4 -12 9 -9 5 3 6 10 3 15 -9 13 -12 11 -12 -6z"/>
<path d="M307 1029 c7 -7 15 -10 18 -7 3 3 -2 9 -12 12 -14 6 -15 5 -6 -5z"/>
<path d="M230 1006 c0 -2 7 -6 15 -10 8 -3 15 -1 15 4 0 6 -7 10 -15 10 -8 0
-15 -2 -15 -4z"/>
<path d="M5006 974 c-5 -13 -9 -14 -21 -4 -9 7 -18 10 -21 7 -3 -3 4 -10 15
-17 17 -9 25 -8 36 4 17 17 19 26 6 26 -5 0 -12 -7 -15 -16z"/>
<path d="M4975 939 c-4 -5 -10 -7 -15 -4 -10 6 -8 -15 3 -32 5 -8 4 -13 -2
-13 -6 0 -11 -5 -11 -12 0 -6 11 -1 25 12 13 12 22 26 20 31 -3 4 0 9 7 11 8
3 6 7 -5 11 -9 3 -19 2 -22 -4z m10 -16 c-2 -10 -4 -19 -4 -21 -1 -2 -6 0 -11
3 -8 5 -7 11 1 21 15 18 18 18 14 -3z"/>
<path d="M1160 865 c-7 -9 -6 -16 5 -25 10 -8 15 -9 15 -2 0 6 6 10 13 8 6 -1
9 -1 5 1 -5 3 -8 9 -8 14 0 6 6 7 13 3 6 -4 8 -3 4 1 -12 14 -35 14 -47 0z
m20 -5 c0 -5 -5 -10 -11 -10 -5 0 -7 5 -4 10 3 6 8 10 11 10 2 0 4 -4 4 -10z"/>
<path d="M1223 845 c0 -8 4 -12 9 -9 5 3 6 10 3 15 -9 13 -12 11 -12 -6z"/>
<path d="M1725 632 c-3 -7 0 -10 6 -7 5 4 16 1 24 -5 11 -9 15 -9 15 -1 0 6
-6 11 -12 11 -9 0 -8 3 2 10 12 7 10 9 -7 7 -13 0 -25 -7 -28 -15z"/>
<path d="M1820 635 c-7 -9 -11 -17 -9 -20 3 -2 10 5 17 15 14 24 10 26 -8 5z"/>
<path d="M1954 632 c7 -22 -8 -39 -19 -22 -4 6 -11 8 -16 4 -16 -9 10 -33 31
-29 11 2 26 -5 33 -16 14 -19 14 -19 31 0 27 30 63 22 57 -12 -1 -5 3 -6 8 -3
5 3 14 -1 21 -9 6 -7 19 -11 27 -8 10 4 14 2 10 -4 -3 -5 -1 -10 6 -11 7 0 22
-3 34 -5 27 -7 52 18 35 35 -9 9 -15 9 -23 1 -6 -6 -18 -9 -25 -6 -12 4 -12 9
-2 22 10 13 10 14 -1 4 -18 -16 -41 -5 -34 15 5 14 3 15 -7 5 -10 -10 -11 -15
-1 -27 8 -10 9 -16 1 -21 -6 -4 -9 -1 -8 6 2 7 -2 13 -9 14 -6 0 -15 4 -20 9
-5 5 -3 6 5 2 16 -9 16 10 0 20 -21 13 -48 12 -59 -3 -16 -18 -31 -5 -23 20 3
12 3 19 -1 14 -5 -4 -19 0 -33 9 -23 15 -24 15 -18 -4z m32 -30 c-3 -3 2 -11
12 -18 9 -7 12 -14 6 -14 -6 0 -17 7 -24 15 -7 8 -17 12 -24 8 -6 -4 -5 1 3
10 7 9 18 14 23 11 5 -3 7 -8 4 -12z m199 -62 c9 14 28 13 23 -2 -6 -17 -34
-18 -55 -1 -17 13 -16 13 4 4 14 -7 24 -8 28 -1z"/>
<path d="M2627 379 c7 -7 15 -10 18 -7 3 3 -2 9 -12 12 -14 6 -15 5 -6 -5z"/>
<path d="M3505 201 c6 -11 4 -13 -11 -7 -18 7 -18 6 -2 -11 13 -12 21 -14 28
-7 8 8 6 15 -6 25 -15 12 -17 12 -9 0z"/>
<path d="M2142 4500 c0 -14 2 -19 5 -12 2 6 2 18 0 25 -3 6 -5 1 -5 -13z"/>
<path d="M2172 4350 c0 -14 2 -19 5 -12 2 6 2 18 0 25 -3 6 -5 1 -5 -13z"/>
<path d="M6040 1656 c0 -8 4 -17 9 -20 5 -4 7 3 4 14 -6 23 -13 26 -13 6z"/>
<path d="M5892 1617 c-17 -18 -19 -24 -7 -24 8 0 13 3 10 5 -3 3 2 14 12 24
24 27 10 22 -15 -5z"/>
<path d="M6010 1620 c0 -5 5 -10 10 -10 6 0 10 5 10 10 0 6 -4 10 -10 10 -5 0
-10 -4 -10 -10z"/>
<path d="M6067 1599 c7 -7 15 -10 18 -7 3 3 -2 9 -12 12 -14 6 -15 5 -6 -5z"/>
<path d="M5830 1565 c-7 -9 -8 -15 -2 -15 5 0 12 7 16 15 3 8 4 15 2 15 -2 0
-9 -7 -16 -15z"/>
<path d="M6070 1560 c0 -5 5 -10 10 -10 6 0 10 5 10 10 0 6 -4 10 -10 10 -5 0
-10 -4 -10 -10z"/>
<path d="M5901 1546 c-9 -11 -8 -15 5 -20 21 -8 24 -8 24 5 0 5 -4 7 -10 4 -5
-3 -10 -2 -10 4 0 5 6 12 13 14 7 4 8 6 1 6 -6 1 -17 -5 -23 -13z"/>
<path d="M5941 1555 c0 -5 4 -17 9 -25 7 -11 10 -11 10 -2 0 7 5 10 12 6 7 -4
8 -3 4 5 -4 6 -11 9 -16 6 -4 -3 -11 1 -13 7 -3 7 -6 9 -6 3z"/>
<path d="M5990 1499 c0 -5 5 -7 10 -4 6 3 10 8 10 11 0 2 -4 4 -10 4 -5 0 -10
-5 -10 -11z"/>
<path d="M5896 1481 c-3 -5 1 -14 9 -21 10 -9 18 -9 32 0 17 11 17 11 0 6 -11
-3 -24 -3 -30 1 -7 4 -2 10 13 14 23 6 23 7 3 8 -12 1 -24 -3 -27 -8z"/>
<path d="M5950 1486 c0 -2 7 -7 16 -10 8 -3 12 -2 9 4 -6 10 -25 14 -25 6z"/>
<path d="M5840 1460 c-6 -12 -9 -25 -5 -28 3 -3 8 4 12 16 6 25 19 29 26 7 4
-12 5 -11 3 1 -2 26 -23 28 -36 4z"/>
<path d="M5950 1446 c0 -2 7 -7 16 -10 8 -3 12 -2 9 4 -6 10 -25 14 -25 6z"/>
<path d="M5930 1436 c0 -2 8 -10 18 -17 15 -13 16 -12 3 4 -13 16 -21 21 -21
13z"/>
<path d="M5850 1420 c0 -5 5 -10 10 -10 6 0 10 5 10 10 0 6 -4 10 -10 10 -5 0
-10 -4 -10 -10z"/>
<path d="M5886 1421 c-3 -5 1 -11 9 -14 9 -4 12 -1 8 9 -6 16 -10 17 -17 5z"/>
<path d="M5970 1400 c0 -5 5 -10 11 -10 5 0 7 5 4 10 -3 6 -8 10 -11 10 -2 0
-4 -4 -4 -10z"/>
<path d="M5874 1380 c0 -13 4 -16 10 -10 7 7 7 13 0 20 -6 6 -10 3 -10 -10z"/>
<path d="M5794 1381 c3 -5 -1 -12 -10 -15 -8 -3 -12 -10 -9 -16 3 -5 -1 -10
-9 -10 -19 0 -21 -16 -4 -26 7 -5 8 -3 3 6 -6 10 -4 12 8 7 11 -4 15 -1 12 13
-2 10 3 21 11 24 16 6 19 26 3 26 -5 0 -8 -4 -5 -9z"/>
<path d="M5827 1368 c-16 -12 -15 -13 7 -13 15 0 22 5 19 13 -3 6 -6 12 -7 12
-1 0 -10 -6 -19 -12z"/>
<path d="M5819 1333 c-13 -16 -12 -17 4 -4 16 13 21 21 13 21 -2 0 -10 -8 -17
-17z"/>
<path d="M5890 1320 c0 -5 5 -10 11 -10 5 0 7 5 4 10 -3 6 -8 10 -11 10 -2 0
-4 -4 -4 -10z"/>
<path d="M5713 1293 c0 -9 4 -10 12 -3 7 5 15 7 18 3 4 -3 7 -1 7 5 0 6 -8 10
-18 9 -10 0 -19 -7 -19 -14z"/>
<path d="M5615 1265 c-19 -16 -23 -23 -11 -18 15 5 17 3 11 -8 -5 -8 -5 -11 1
-6 5 5 9 12 9 15 0 12 16 32 25 32 4 0 6 -10 4 -22 -4 -21 -4 -21 5 -3 18 41
-2 45 -44 10z"/>
<path d="M5700 1260 c8 -5 20 -10 25 -10 6 0 3 5 -5 10 -8 5 -19 10 -25 10 -5
0 -3 -5 5 -10z"/>
<path d="M5673 1247 c0 -8 6 -14 14 -14 9 0 10 4 2 14 -6 7 -12 13 -14 13 -1
0 -2 -6 -2 -13z"/>
<path d="M5580 1226 c0 -2 7 -7 16 -10 8 -3 12 -2 9 4 -6 10 -25 14 -25 6z"/>
<path d="M5627 1208 c-5 -21 -5 -21 7 -6 10 14 15 15 26 5 12 -10 12 -9 1 6
-18 23 -28 22 -34 -5z"/>
<path d="M5955 1220 c3 -5 8 -10 11 -10 2 0 4 5 4 10 0 6 -5 10 -11 10 -5 0
-7 -4 -4 -10z"/>
<path d="M5561 1213 c-1 -7 -6 -12 -13 -10 -6 1 -13 -7 -15 -18 -2 -16 -1 -16
5 -4 4 9 15 15 24 13 10 -1 21 3 25 8 3 6 1 8 -5 4 -5 -3 -13 0 -15 6 -4 10
-6 10 -6 1z"/>
<path d="M5733 1205 c0 -8 4 -12 9 -9 5 3 6 10 3 15 -9 13 -12 11 -12 -6z"/>
<path d="M5595 1189 c-4 -6 -5 -12 -2 -15 2 -3 7 2 10 11 7 17 1 20 -8 4z"/>
<path d="M5639 1173 c-13 -16 -12 -17 4 -4 9 7 17 15 17 17 0 8 -8 3 -21 -13z"/>
<path d="M5430 1170 c0 -6 7 -10 15 -10 8 0 15 2 15 4 0 2 -7 6 -15 10 -8 3
-15 1 -15 -4z"/>
<path d="M5478 1173 c7 -3 16 -2 19 1 4 3 -2 6 -13 5 -11 0 -14 -3 -6 -6z"/>
<path d="M5553 1149 c-2 -23 3 -25 10 -4 4 8 3 16 -1 19 -4 3 -9 -4 -9 -15z"/>
<path d="M5470 1151 c0 -7 -4 -9 -10 -6 -6 4 -7 -1 -3 -11 6 -15 7 -15 15 1 6
9 7 19 4 22 -3 4 -6 1 -6 -6z"/>
<path d="M5430 1145 c0 -5 5 -17 10 -25 5 -8 10 -10 10 -5 0 6 -5 17 -10 25
-5 8 -10 11 -10 5z"/>
<path d="M5376 1095 c4 -8 8 -15 10 -15 2 0 4 7 4 15 0 8 -4 15 -10 15 -5 0
-7 -7 -4 -15z"/>
<path d="M5456 1093 c-6 -14 -5 -15 5 -6 7 7 10 15 7 18 -3 3 -9 -2 -12 -12z"/>
<path d="M830 1096 c0 -2 7 -7 16 -10 8 -3 12 -2 9 4 -6 10 -25 14 -25 6z"/>
<path d="M5350 1093 c5 -2 8 -9 4 -14 -3 -5 0 -9 6 -9 15 0 7 23 -8 26 -7 1
-8 0 -2 -3z"/>
<path d="M545 1070 c-6 -9 11 -50 21 -50 2 0 0 9 -6 19 -12 24 -13 31 -1 31 5
0 11 -10 14 -22 4 -12 9 -19 12 -16 8 8 -13 48 -25 48 -5 0 -12 -4 -15 -10z"/>
<path d="M430 1064 c0 -3 7 -12 15 -20 16 -17 18 -14 9 10 -6 15 -24 23 -24
10z"/>
<path d="M897 1057 c-3 -8 0 -14 7 -14 7 0 13 6 13 14 0 7 -4 13 -8 13 -4 0
-9 -6 -12 -13z"/>
<path d="M5445 1059 c-3 -4 2 -6 10 -5 21 3 28 13 10 13 -9 0 -18 -4 -20 -8z"/>
<path d="M674 1035 c-4 -8 -10 -12 -15 -9 -5 3 -6 -2 -2 -12 5 -14 7 -14 18 5
6 12 14 18 18 15 4 -4 7 -2 7 4 0 17 -20 15 -26 -3z"/>
<path d="M940 1043 c0 -6 11 -18 24 -26 21 -14 26 -14 36 -2 9 11 9 15 1 15
-6 0 -11 -5 -11 -12 0 -6 -11 -1 -25 12 -14 13 -25 19 -25 13z"/>
<path d="M430 1025 c0 -8 4 -15 10 -15 5 0 7 7 4 15 -4 8 -8 15 -10 15 -2 0
-4 -7 -4 -15z"/>
<path d="M5315 1030 c-3 -5 -2 -18 4 -27 7 -14 9 -12 8 10 -2 30 -3 31 -12 17z"/>
<path d="M592 1021 c-11 -6 -10 -10 4 -15 9 -3 19 -4 22 -1 3 3 0 5 -7 5 -7 0
-9 5 -6 10 7 12 4 12 -13 1z"/>
<path d="M820 1018 c0 -4 7 -8 15 -8 8 0 15 4 15 8 0 5 -7 9 -15 9 -8 0 -15
-4 -15 -9z"/>
<path d="M5353 1010 c5 -29 13 -33 13 -5 0 14 -4 25 -8 25 -4 0 -7 -9 -5 -20z"/>
<path d="M636 1007 c3 -10 9 -15 12 -12 3 3 0 11 -7 18 -10 9 -11 8 -5 -6z"/>
<path d="M795 1009 c-4 -6 -5 -12 -2 -15 2 -3 7 2 10 11 7 17 1 20 -8 4z"/>
<path d="M404 999 c-4 -7 -3 -9 4 -5 6 3 13 -2 15 -11 4 -16 5 -16 6 -1 1 21
-15 32 -25 17z"/>
<path d="M446 982 c-13 -24 -13 -29 -1 -29 8 0 12 4 9 8 -3 5 0 18 6 29 6 11
8 20 6 20 -3 0 -12 -13 -20 -28z"/>
<path d="M550 1000 c0 -5 5 -10 10 -10 6 0 10 5 10 10 0 6 -4 10 -10 10 -5 0
-10 -4 -10 -10z"/>
<path d="M710 1000 c0 -5 7 -7 15 -4 11 5 14 1 9 -12 -5 -15 -4 -16 4 -4 6 8
8 18 6 22 -7 11 -34 10 -34 -2z"/>
<path d="M5286 1002 c-7 -12 -16 -65 -10 -59 3 3 6 9 6 14 0 4 4 18 9 31 8 21
5 30 -5 14z"/>
<path d="M806 984 c-9 -24 -2 -26 12 -4 7 11 8 20 3 20 -5 0 -12 -7 -15 -16z"/>
<path d="M831 977 c-13 -21 -12 -21 5 -5 10 10 16 20 13 22 -3 3 -11 -5 -18
-17z"/>
<path d="M471 974 c0 -11 3 -14 6 -6 3 7 2 16 -1 19 -3 4 -6 -2 -5 -13z"/>
<path d="M610 981 c0 -6 4 -12 8 -15 5 -3 9 1 9 9 0 8 -4 15 -9 15 -4 0 -8 -4
-8 -9z"/>
<path d="M665 979 c-3 -4 2 -6 10 -5 21 3 28 13 10 13 -9 0 -18 -4 -20 -8z"/>
<path d="M321 973 c-1 -17 16 -25 25 -12 4 7 3 9 -4 5 -5 -3 -13 0 -15 6 -4 9
-6 10 -6 1z"/>
<path d="M706 963 c-6 -14 -5 -15 5 -6 7 7 10 15 7 18 -3 3 -9 -2 -12 -12z"/>
<path d="M205 960 c-3 -5 -2 -10 4 -10 5 0 13 5 16 10 3 6 2 10 -4 10 -5 0
-13 -4 -16 -10z"/>
<path d="M293 954 c-3 -8 -2 -19 3 -24 5 -5 9 1 9 16 0 28 -3 30 -12 8z"/>
<path d="M754 942 c0 -17 5 -29 13 -29 9 0 10 4 3 12 -6 7 -8 20 -4 29 3 9 2
16 -3 16 -5 0 -9 -13 -9 -28z"/>
<path d="M844 959 c-4 -7 -3 -9 4 -5 6 3 13 -2 15 -11 4 -16 5 -16 6 -1 1 21
-15 32 -25 17z"/>
<path d="M5430 960 c0 -5 5 -10 11 -10 5 0 7 5 4 10 -3 6 -8 10 -11 10 -2 0
-4 -4 -4 -10z"/>
<path d="M146 943 c8 -8 12 -19 9 -24 -4 -5 -1 -9 5 -9 7 0 10 7 6 15 -3 8 2
18 10 23 11 6 8 9 -14 9 -26 0 -28 -2 -16 -14z"/>
<path d="M675 950 c-4 -6 -11 -7 -17 -4 -7 4 -8 2 -4 -5 6 -9 11 -9 22 0 14
11 18 19 10 19 -3 0 -8 -5 -11 -10z"/>
<path d="M930 950 c8 -5 11 -10 5 -10 -11 0 16 -20 28 -20 4 0 7 5 7 11 0 5
-4 8 -9 5 -5 -3 -11 1 -15 9 -3 8 -11 15 -18 15 -9 0 -8 -3 2 -10z"/>
<path d="M13 933 c1 -17 4 -19 14 -11 15 12 18 22 4 14 -5 -4 -11 0 -14 6 -3
7 -4 3 -4 -9z"/>
<path d="M230 940 c0 -5 7 -7 15 -4 8 4 15 8 15 10 0 2 -7 4 -15 4 -8 0 -15
-4 -15 -10z"/>
<path d="M350 938 c0 -6 3 -8 7 -5 3 4 11 2 18 -3 8 -7 12 -6 12 3 0 7 -9 14
-19 14 -10 1 -18 -3 -18 -9z"/>
<path d="M500 946 c0 -2 8 -10 18 -17 15 -13 16 -12 3 4 -13 16 -21 21 -21 13z"/>
<path d="M800 940 c-8 -5 -10 -10 -5 -10 6 0 17 5 25 10 8 5 11 10 5 10 -5 0
-17 -5 -25 -10z"/>
<path d="M1153 932 c0 -10 7 -19 14 -19 17 0 17 12 -1 27 -12 9 -15 8 -13 -8z"/>
<path d="M5188 943 c7 -3 16 -2 19 1 4 3 -2 6 -13 5 -11 0 -14 -3 -6 -6z"/>
<path d="M181 936 c2 -2 15 -9 29 -15 24 -11 24 -11 6 3 -16 13 -49 24 -35 12z"/>
<path d="M40 915 c-11 -13 -11 -18 0 -28 10 -9 11 -9 5 1 -4 8 0 19 11 27 11
8 14 15 8 15 -6 0 -17 -7 -24 -15z"/>
<path d="M832 911 c7 -9 13 -18 15 -20 1 -2 1 5 0 16 0 11 -7 20 -14 20 -10 0
-10 -4 -1 -16z"/>
<path d="M5220 926 c0 -2 8 -10 18 -17 15 -13 16 -12 3 4 -13 16 -21 21 -21
13z"/>
<path d="M5335 920 c-3 -5 -1 -10 4 -10 6 0 11 5 11 10 0 6 -2 10 -4 10 -3 0
-8 -4 -11 -10z"/>
<path d="M916 905 c-3 -8 -1 -15 4 -15 6 0 10 7 10 15 0 8 -2 15 -4 15 -2 0
-6 -7 -10 -15z"/>
<path d="M964 898 l-19 -23 23 19 c12 11 25 16 29 13 4 -4 -1 -13 -10 -20 -13
-9 -14 -16 -6 -27 9 -13 10 -13 6 2 -3 9 1 19 9 22 8 3 14 1 14 -4 0 -6 5 -10
10 -10 6 0 3 11 -6 25 -20 31 -26 31 -50 3z"/>
<path d="M1190 916 c0 -2 8 -10 18 -17 15 -13 16 -12 3 4 -13 16 -21 21 -21
13z"/>
<path d="M73 903 c4 -6 2 -13 -5 -15 -8 -3 -6 -6 4 -10 17 -7 19 15 3 29 -4 4
-5 3 -2 -4z"/>
<path d="M115 900 c-3 -6 1 -7 9 -4 18 7 21 14 7 14 -6 0 -13 -4 -16 -10z"/>
<path d="M207 899 c7 -7 15 -10 18 -7 3 3 -2 9 -12 12 -14 6 -15 5 -6 -5z"/>
<path d="M270 899 c0 -5 5 -7 10 -4 6 3 10 8 10 11 0 2 -4 4 -10 4 -5 0 -10
-5 -10 -11z"/>
<path d="M810 901 c0 -6 4 -13 10 -16 6 -3 7 1 4 9 -7 18 -14 21 -14 7z"/>
<path d="M5090 900 c0 -4 7 -7 15 -6 23 3 26 12 5 13 -11 1 -20 -2 -20 -7z"/>
<path d="M5154 899 c-2 -4 4 -6 13 -4 10 1 23 -1 29 -6 6 -5 11 -4 11 4 0 14
-45 18 -53 6z"/>
<path d="M157 893 c-10 -9 -9 -23 1 -23 5 0 9 7 9 15 0 17 -1 18 -10 8z"/>
<path d="M14 876 c1 -8 5 -18 8 -22 4 -3 5 1 4 10 -1 8 -5 18 -8 22 -4 3 -5
-1 -4 -10z"/>
<path d="M306 878 c3 -5 10 -6 15 -3 13 9 11 12 -6 12 -8 0 -12 -4 -9 -9z"/>
<path d="M655 879 c-3 -4 2 -6 10 -5 21 3 28 13 10 13 -9 0 -18 -4 -20 -8z"/>
<path d="M1247 883 c-11 -10 13 -32 29 -26 11 4 12 9 3 19 -13 15 -22 18 -32
7z"/>
<path d="M4816 869 c-26 -20 -34 -39 -18 -39 5 0 14 10 20 23 10 20 11 20 9 2
-1 -11 -9 -27 -17 -35 -9 -8 -10 -11 -3 -6 7 5 13 5 13 0 1 -17 24 31 26 54 3
27 3 27 -30 1z"/>
<path d="M5120 871 c-7 -15 -7 -19 5 -17 8 1 18 6 22 11 5 4 2 5 -6 0 -11 -6
-13 -4 -8 8 9 23 0 21 -13 -2z"/>
<path d="M5250 879 c0 -5 5 -7 10 -4 6 3 10 8 10 11 0 2 -4 4 -10 4 -5 0 -10
-5 -10 -11z"/>
<path d="M937 869 c7 -7 15 -10 18 -7 3 3 -2 9 -12 12 -14 6 -15 5 -6 -5z"/>
<path d="M5080 875 c0 -5 5 -17 10 -25 5 -8 10 -10 10 -5 0 6 -5 17 -10 25 -5
8 -10 11 -10 5z"/>
<path d="M5176 867 c3 -10 9 -15 12 -12 3 3 0 11 -7 18 -10 9 -11 8 -5 -6z"/>
<path d="M250 859 c0 -5 5 -7 10 -4 6 3 10 8 10 11 0 2 -4 4 -10 4 -5 0 -10
-5 -10 -11z"/>
<path d="M335 860 c-3 -5 -1 -10 4 -10 6 0 11 5 11 10 0 6 -2 10 -4 10 -3 0
-8 -4 -11 -10z"/>
<path d="M813 851 c0 -11 5 -18 9 -15 4 3 5 11 1 19 -7 21 -12 19 -10 -4z"/>
<path d="M913 845 c0 -8 4 -12 9 -9 5 3 6 10 3 15 -9 13 -12 11 -12 -6z"/>
<path d="M70 836 c7 -7 13 -7 20 0 6 6 3 10 -10 10 -13 0 -16 -4 -10 -10z"/>
<path d="M290 846 c0 -2 7 -7 16 -10 8 -3 12 -2 9 4 -6 10 -25 14 -25 6z"/>
<path d="M855 840 c3 -5 8 -10 11 -10 2 0 4 5 4 10 0 6 -5 10 -11 10 -5 0 -7
-4 -4 -10z"/>
<path d="M945 840 c-3 -6 1 -7 9 -4 18 7 21 14 7 14 -6 0 -13 -4 -16 -10z"/>
<path d="M1110 842 c0 -5 7 -15 15 -22 14 -11 13 -14 -1 -25 -14 -10 -15 -13
-3 -20 8 -5 11 -5 7 0 -4 4 -1 13 7 19 12 9 11 14 -5 35 -11 13 -20 19 -20 13z"/>
<path d="M1380 842 c0 -18 30 -47 49 -47 11 0 20 -4 20 -9 0 -4 13 -16 29 -26
32 -20 41 -54 11 -45 -18 6 -47 -30 -34 -43 3 -3 8 4 12 16 3 12 10 22 15 22
5 0 7 -4 4 -9 -4 -5 5 -8 19 -6 27 2 52 -26 47 -55 -3 -13 -2 -13 7 0 7 9 6
19 -1 27 -7 9 -7 17 2 28 9 10 9 15 1 15 -6 0 -11 -5 -11 -12 0 -16 -13 -1
-16 18 -2 11 3 14 14 10 12 -4 12 -2 -3 9 -11 9 -21 20 -21 25 -1 6 -2 16 -3
23 -1 7 -6 5 -12 -6 -10 -17 -12 -17 -32 3 -29 28 -97 72 -97 62z m139 -79
c-1 -5 0 -10 1 -13 7 -19 7 -41 0 -45 -5 -3 -7 3 -5 15 2 11 -1 22 -6 25 -5 4
-7 11 -4 16 7 11 15 12 14 2z"/>
<path d="M5216 842 c-2 -4 -1 -14 4 -22 7 -11 9 -9 7 8 -1 24 -3 26 -11 14z"/>
<path d="M971 827 c-8 -10 -7 -14 2 -14 8 0 14 6 14 14 0 7 -1 13 -2 13 -2 0
-8 -6 -14 -13z"/>
<path d="M139 828 c-5 -18 -6 -38 -1 -34 7 8 12 36 6 36 -2 0 -4 -1 -5 -2z"/>
<path d="M236 813 c-6 -14 -5 -15 5 -6 7 7 10 15 7 18 -3 3 -9 -2 -12 -12z"/>
<path d="M1080 814 c0 -9 -5 -12 -12 -8 -7 4 -9 3 -5 -1 14 -16 36 -14 30 3
-5 11 -3 13 7 7 9 -5 11 -4 6 3 -10 17 -26 15 -26 -4z"/>
<path d="M50 799 c0 -5 5 -7 10 -4 6 3 10 8 10 11 0 2 -4 4 -10 4 -5 0 -10 -5
-10 -11z"/>
<path d="M893 795 c0 -8 4 -12 9 -9 5 3 6 10 3 15 -9 13 -12 11 -12 -6z"/>
<path d="M999 793 c-13 -16 -12 -17 4 -4 9 7 17 15 17 17 0 8 -8 3 -21 -13z"/>
<path d="M5154 802 c4 -3 14 -7 22 -8 9 -1 13 0 10 4 -4 3 -14 7 -22 8 -9 1
-13 0 -10 -4z"/>
<path d="M1180 791 c0 -6 4 -13 10 -16 6 -3 7 1 4 9 -7 18 -14 21 -14 7z"/>
<path d="M4991 787 c2 -2 11 -8 20 -15 12 -9 16 -9 16 1 0 7 -9 14 -20 14 -11
1 -18 1 -16 0z"/>
<path d="M1295 770 c-3 -5 -1 -10 4 -10 6 0 11 5 11 10 0 6 -2 10 -4 10 -3 0
-8 -4 -11 -10z"/>
<path d="M1155 753 c11 -12 18 -14 26 -6 8 8 7 13 -2 18 -8 5 -10 4 -5 -3 9
-15 -6 -16 -22 -2 -7 5 -5 2 3 -7z"/>
<path d="M1582 761 c-10 -6 -10 -10 2 -21 9 -7 13 -17 9 -23 -4 -6 0 -8 9 -4
9 3 21 0 27 -6 6 -6 11 -7 11 -3 0 5 6 4 13 -2 7 -6 18 -7 25 -3 10 6 10 11
-3 21 -12 10 -18 10 -30 0 -8 -7 -15 -9 -15 -4 -1 20 -35 53 -48 45z"/>
<path d="M4913 763 c4 -3 -1 -12 -11 -20 -15 -13 -15 -13 6 -3 19 9 23 30 5
30 -4 0 -3 -3 0 -7z"/>
<path d="M4959 768 c-5 -18 -6 -39 -2 -34 4 3 13 0 22 -6 12 -10 12 -7 -2 8
-9 11 -14 24 -10 27 3 4 3 7 0 7 -4 0 -7 -1 -8 -2z"/>
<path d="M1270 750 c0 -6 7 -10 15 -10 8 0 15 2 15 4 0 2 -7 6 -15 10 -8 3
-15 1 -15 -4z"/>
<path d="M4705 749 c-4 -6 -5 -12 -2 -15 2 -3 7 2 10 11 7 17 1 20 -8 4z"/>
<path d="M1130 741 c0 -6 4 -13 10 -16 6 -3 7 1 4 9 -7 18 -14 21 -14 7z"/>
<path d="M1470 740 c0 -5 5 -10 10 -10 6 0 10 5 10 10 0 6 -4 10 -10 10 -5 0
-10 -4 -10 -10z"/>
<path d="M4675 740 c-4 -6 -16 -8 -28 -4 -21 6 -21 6 -4 -13 9 -11 14 -24 10
-28 -5 -5 0 -3 9 4 10 7 16 17 13 21 -3 5 1 10 7 13 7 2 10 7 7 11 -4 4 -10 2
-14 -4z"/>
<path d="M1186 718 c3 -5 10 -6 15 -3 13 9 11 12 -6 12 -8 0 -12 -4 -9 -9z"/>
<path d="M1257 724 c-7 -8 15 -44 27 -44 5 0 2 8 -7 18 -10 10 -14 22 -10 25
3 4 4 7 1 7 -2 0 -7 -3 -11 -6z"/>
<path d="M4830 719 c0 -5 4 -8 9 -4 5 3 12 1 16 -5 3 -5 11 -10 18 -10 6 0 2
7 -9 15 -23 17 -34 19 -34 4z"/>
<path d="M1204 698 l-19 -23 23 19 c21 18 27 26 19 26 -2 0 -12 -10 -23 -22z"/>
<path d="M1746 705 c4 -8 12 -15 20 -15 20 0 17 7 -6 20 -16 9 -18 8 -14 -5z"/>
<path d="M1133 691 c0 -11 5 -18 9 -15 4 3 5 11 1 19 -7 21 -12 19 -10 -4z"/>
<path d="M1395 700 c27 -12 43 -12 25 0 -8 5 -22 9 -30 9 -10 0 -8 -3 5 -9z"/>
<path d="M4956 698 c3 -5 10 -6 15 -3 13 9 11 12 -6 12 -8 0 -12 -4 -9 -9z"/>
<path d="M5010 700 c0 -5 5 -10 11 -10 5 0 7 5 4 10 -3 6 -8 10 -11 10 -2 0
-4 -4 -4 -10z"/>
<path d="M1230 696 c0 -2 8 -10 18 -17 15 -13 16 -12 3 4 -13 16 -21 21 -21
13z"/>
<path d="M1308 683 c7 -3 16 -2 19 1 4 3 -2 6 -13 5 -11 0 -14 -3 -6 -6z"/>
<path d="M1379 688 c-11 -38 -1 -49 21 -23 11 13 10 14 -5 9 -13 -5 -16 -4
-11 4 4 7 5 12 2 12 -3 0 -6 -1 -7 -2z"/>
<path d="M1430 665 c0 -8 4 -15 10 -15 5 0 7 7 4 15 -4 8 -8 15 -10 15 -2 0
-4 -7 -4 -15z"/>
<path d="M1490 665 c0 -8 4 -15 10 -15 5 0 7 7 4 15 -4 8 -8 15 -10 15 -2 0
-4 -7 -4 -15z"/>
<path d="M1518 668 c9 -9 9 -15 -1 -27 -10 -14 -10 -14 5 -3 17 14 14 42 -5
42 -8 0 -7 -4 1 -12z"/>
<path d="M1230 660 c0 -5 5 -10 11 -10 5 0 7 5 4 10 -3 6 -8 10 -11 10 -2 0
-4 -4 -4 -10z"/>
<path d="M1790 660 c0 -5 5 -10 11 -10 5 0 7 5 4 10 -3 6 -8 10 -11 10 -2 0
-4 -4 -4 -10z"/>
<path d="M4550 660 c0 -5 5 -10 10 -10 6 0 10 5 10 10 0 6 -4 10 -10 10 -5 0
-10 -4 -10 -10z"/>
<path d="M4577 655 c-4 -8 -16 -14 -29 -12 -15 1 -22 -3 -20 -11 1 -7 -4 -20
-13 -28 -24 -25 -16 -41 18 -35 5 1 6 -7 2 -18 -4 -14 0 -23 15 -31 11 -6 20
-7 21 -3 0 4 5 -1 10 -12 l9 -20 -3 20 c-1 11 -8 21 -15 21 -6 1 -16 2 -22 3
-5 0 -10 6 -10 12 0 6 7 9 15 5 22 -8 18 7 -6 22 -16 11 -18 16 -9 28 7 8 9
14 4 14 -5 0 5 11 21 24 17 13 27 27 24 31 -4 3 -9 -1 -12 -10z m-46 -58 c-6
-8 -7 -18 -3 -22 4 -5 1 -5 -6 -1 -10 6 -10 11 -1 22 6 8 14 14 16 14 3 0 0
-6 -6 -13z"/>
<path d="M4740 660 c0 -5 5 -10 10 -10 6 0 10 5 10 10 0 6 -4 10 -10 10 -5 0
-10 -4 -10 -10z"/>
<path d="M4794 655 c-4 -8 -11 -12 -17 -8 -6 3 -7 1 -3 -5 9 -15 33 -5 33 13
0 19 -6 19 -13 0z"/>
<path d="M1316 642 c-2 -4 -1 -14 4 -22 7 -11 9 -9 7 8 -1 24 -3 26 -11 14z"/>
<path d="M1471 642 c3 -19 -2 -25 -11 -12 -7 12 -9 10 -7 -7 1 -21 2 -22 22
-5 11 9 21 17 23 18 2 1 -4 4 -12 7 -9 4 -15 3 -15 -1z"/>
<path d="M4820 645 c0 -2 6 -8 13 -14 10 -8 14 -7 14 2 0 8 -6 14 -14 14 -7 0
-13 -1 -13 -2z"/>
<path d="M4870 636 c7 -7 13 -7 20 0 6 6 3 10 -10 10 -13 0 -16 -4 -10 -10z"/>
<path d="M1415 630 c-4 -6 -11 -7 -17 -4 -7 4 -8 2 -4 -5 6 -9 11 -9 22 0 14
11 18 19 10 19 -3 0 -8 -5 -11 -10z"/>
<path d="M1571 624 c0 -11 3 -14 6 -6 3 7 2 16 -1 19 -3 4 -6 -2 -5 -13z"/>
<path d="M1517 616 c-17 -13 -16 -14 2 -19 15 -3 18 -1 14 11 -5 11 -3 13 7 7
9 -5 11 -4 6 3 -9 14 -7 14 -29 -2z"/>
<path d="M4631 616 c-13 -15 -7 -36 10 -36 5 0 9 5 9 11 0 5 -4 7 -10 4 -5 -3
-10 -2 -10 4 0 5 6 11 13 14 6 2 9 7 6 11 -3 4 -12 0 -18 -8z"/>
<path d="M4740 620 c0 -5 7 -7 15 -4 8 4 15 8 15 10 0 2 -7 4 -15 4 -8 0 -15
-4 -15 -10z"/>
<path d="M4810 621 c0 -6 4 -13 10 -16 6 -3 7 1 4 9 -7 18 -14 21 -14 7z"/>
<path d="M4716 607 c3 -10 9 -15 12 -12 3 3 0 11 -7 18 -10 9 -11 8 -5 -6z"/>
<path d="M4465 590 c-10 -11 -14 -20 -9 -20 5 0 1 -7 -9 -14 -10 -8 -16 -20
-15 -27 2 -8 -2 -13 -9 -12 -8 2 -10 -4 -7 -15 5 -14 4 -14 -4 -2 -12 16 -5
33 10 24 6 -4 6 2 -1 15 -7 11 -15 21 -19 21 -11 0 -38 -20 -28 -20 5 0 1 -9
-9 -20 -15 -17 -16 -22 -4 -37 13 -17 12 -17 -4 -4 -10 8 -17 10 -15 5 3 -10
-4 -14 -24 -14 -6 0 -3 6 8 14 17 13 17 16 4 30 -13 13 -18 13 -39 -5 -18 -14
-19 -19 -7 -19 34 0 11 -31 -27 -37 -10 -2 -28 -9 -40 -15 -12 -7 -26 -11 -30
-10 -5 1 -5 -3 -1 -9 4 -8 0 -9 -14 -5 -15 5 -24 1 -32 -14 -10 -18 -7 -24 12
-21 4 0 5 -5 2 -13 -6 -15 -21 -16 -43 -2 -9 6 -12 5 -8 -1 4 -6 1 -16 -7 -22
-11 -9 -15 -9 -19 1 -4 10 -6 10 -6 -1 -1 -8 -7 -6 -18 8 l-18 22 -13 -21 c-8
-14 -9 -20 -1 -20 8 0 8 -4 -1 -15 -7 -8 -16 -12 -21 -9 -5 3 -9 -1 -9 -8 0
-8 -3 -9 -8 -3 -9 13 -35 13 -44 0 -4 -5 -12 -11 -18 -11 -5 -1 -13 -2 -16 -3
-4 0 0 -9 7 -18 8 -9 9 -14 3 -10 -6 3 -11 0 -11 -8 0 -8 5 -11 10 -8 6 3 7 1
3 -6 -4 -6 -12 -9 -17 -6 -5 4 -9 1 -9 -6 0 -7 -3 -9 -6 -6 -4 4 -3 12 3 19 5
7 8 19 7 26 -1 6 -2 17 -3 23 0 5 -6 7 -11 4 -6 -4 -8 -11 -5 -16 11 -16 -5
-31 -20 -19 -11 9 -21 6 -44 -11 -24 -18 -28 -26 -20 -41 5 -10 7 -18 4 -18
-4 0 7 -11 23 -25 41 -34 48 -31 12 5 -17 17 -30 33 -30 36 0 10 40 -17 49
-34 5 -9 12 -14 15 -11 9 9 -44 59 -63 59 -13 0 -14 2 -2 9 10 7 19 4 27 -7
12 -16 14 -16 29 3 16 20 16 20 12 -1 -3 -12 0 -28 5 -35 8 -11 9 -11 5 2 -4
11 3 20 19 28 13 6 24 7 24 2 0 -5 -7 -11 -15 -15 -21 -8 -19 -19 8 -35 22
-14 22 -14 3 8 -11 11 -14 21 -8 21 6 0 14 -4 17 -10 3 -5 12 -10 18 -10 8 0
7 4 -2 9 -17 11 -23 74 -7 68 6 -3 10 -10 8 -16 -1 -7 2 -10 8 -6 5 3 10 -1
10 -10 0 -9 -4 -13 -10 -10 -5 3 -10 3 -10 -1 0 -9 32 -33 45 -33 6 0 2 4 -7
10 -10 5 -15 16 -11 24 3 9 0 22 -7 30 -9 11 -8 14 9 12 16 -1 20 -6 16 -22
-3 -11 -2 -14 1 -7 3 6 10 10 15 6 5 -3 9 -1 9 5 0 5 -4 13 -10 16 -13 8 -13
25 -1 25 5 0 12 -9 16 -20 6 -20 6 -20 28 0 30 29 45 25 17 -5 -13 -14 -21
-25 -17 -25 3 0 18 12 32 27 17 19 23 34 18 48 -5 16 -3 18 9 8 18 -16 59 -13
78 6 13 13 13 14 -1 9 -14 -6 -16 0 -13 34 3 33 1 39 -12 34 -8 -3 -12 -2 -9
4 5 8 34 8 55 0 3 -2 8 -2 12 -2 3 1 9 -5 12 -13 7 -19 -8 -19 -27 0 -13 13
-16 13 -21 0 -3 -8 -1 -17 5 -20 5 -4 7 -11 4 -16 -4 -5 -1 -9 5 -9 7 0 9 7 6
16 -4 10 -2 14 6 11 7 -2 12 -10 10 -16 -1 -7 2 -10 8 -6 9 6 15 -8 11 -29 -1
-5 4 -4 12 3 10 8 17 8 20 1 3 -6 4 -5 3 2 -2 7 -9 12 -16 10 -8 -2 -10 3 -6
13 4 10 2 14 -5 9 -7 -4 -10 -1 -7 6 5 15 58 23 58 9 0 -5 5 -9 10 -9 6 0 5 8
-2 20 -8 13 -16 16 -22 10 -15 -15 -30 -12 -17 3 6 8 7 17 3 21 -11 12 31 3
44 -9 7 -5 9 -14 6 -20 -3 -5 3 -3 14 5 33 26 46 40 36 40 -5 0 -15 -7 -22
-15 -7 -8 -17 -12 -22 -9 -15 9 31 37 52 31 12 -3 17 0 14 7 -3 7 2 13 11 13
8 0 15 -4 15 -9 0 -4 5 -8 11 -8 8 0 8 4 -1 14 -10 13 -7 15 16 13 15 -1 29 4
31 11 3 6 0 12 -7 12 -6 0 -8 -4 -5 -10 3 -5 -1 -10 -10 -10 -9 0 -13 4 -10
10 4 6 -1 7 -10 3 -15 -5 -15 -3 -4 16 8 11 17 21 22 21 4 0 5 -4 2 -10 -3 -5
-1 -10 4 -10 14 0 14 6 -1 33 -10 19 -9 20 4 10 8 -7 18 -9 23 -5 4 4 4 -4 1
-18 -6 -19 -5 -21 3 -10 9 13 11 13 11 -2 0 -9 5 -20 12 -24 8 -5 9 -2 5 9
-22 54 -22 53 -4 38 9 -7 17 -19 17 -27 0 -18 17 -27 26 -13 4 8 3 9 -4 5 -8
-5 -12 0 -12 12 0 11 -7 22 -15 26 -8 3 -15 10 -15 16 0 6 5 8 12 4 7 -4 8 -3
4 5 -4 6 -12 8 -18 5 -7 -5 -9 2 -6 20 7 34 -5 41 -27 16z m18 -2 c-11 -19
-12 -38 -2 -38 5 0 9 -4 9 -9 0 -8 -8 -8 -39 -2 -2 1 2 8 9 16 7 8 9 15 5 15
-4 0 -2 7 5 15 15 18 24 20 13 3z m-73 -48 c0 -5 -2 -10 -4 -10 -3 0 -8 5 -11
10 -3 6 -1 10 4 10 6 0 11 -4 11 -10z m-10 -39 c11 -22 11 -23 -6 -17 -10 4
-15 4 -12 0 12 -11 -12 -46 -28 -40 -8 3 -14 1 -14 -4 0 -5 -10 -14 -21 -21
-17 -9 -20 -8 -16 3 2 7 11 11 18 10 8 -2 10 0 6 4 -10 10 -38 15 -33 5 3 -4
1 -13 -5 -21 -7 -12 -9 -12 -9 -1 0 11 -3 11 -15 1 -8 -7 -13 -16 -10 -20 3
-4 -1 -13 -9 -19 -10 -9 -15 -8 -20 4 -3 8 -9 14 -13 13 -4 -2 -9 0 -10 5 -2
4 0 7 5 8 4 0 11 7 15 15 5 8 12 12 17 9 5 -3 11 -1 15 5 4 6 10 8 15 5 4 -3
13 2 20 10 9 11 17 12 30 5 13 -7 21 -7 25 0 4 6 10 8 15 5 5 -3 11 -1 14 4 4
5 2 12 -4 16 -7 4 -7 13 1 26 12 23 11 23 29 -10z m-70 5 c0 -2 -7 -7 -16 -10
-8 -3 -12 -2 -9 4 6 10 25 14 25 6z m80 -40 c0 -3 -4 -8 -10 -11 -5 -3 -10 -1
-10 4 0 6 5 11 10 11 6 0 10 -2 10 -4z m-328 -141 c12 3 25 10 30 17 6 10 8 8
6 -4 -2 -9 2 -17 7 -17 6 0 9 8 7 17 -2 13 -1 14 6 3 8 -11 10 -11 15 0 2 8 4
2 3 -12 -1 -27 -29 -37 -52 -18 -7 6 -16 4 -24 -6 -9 -10 -9 -15 -1 -15 6 0
11 -5 11 -12 0 -9 -3 -9 -11 -1 -8 8 -16 6 -31 -9 -19 -19 -20 -19 -34 -1 -13
17 -15 17 -28 0 -13 -16 -14 -16 -19 4 -4 14 -2 19 8 15 7 -2 28 6 46 20 18
13 27 24 20 24 -7 0 -9 5 -5 11 5 8 9 7 16 -4 5 -9 17 -14 30 -12z m-137 -45
c-3 -5 -1 -10 5 -10 6 0 8 -5 4 -12 -6 -9 -9 -9 -12 0 -2 7 -8 10 -12 7 -5 -3
-12 0 -16 6 -4 7 -3 9 4 5 6 -3 13 -2 17 4 3 5 8 10 11 10 3 0 2 -4 -1 -10z
m-91 -39 c3 -5 0 -14 -8 -20 -10 -9 -15 -8 -19 3 -9 22 15 37 27 17z"/>
<path d="M4255 430 c-4 -6 -10 -8 -15 -5 -4 3 -10 -2 -14 -10 -5 -15 11 -31
21 -21 4 3 1 6 -6 6 -7 0 -3 9 10 20 13 10 21 19 17 20 -4 0 -10 -5 -13 -10z"/>
<path d="M4029 299 c-14 -12 -16 -19 -8 -24 6 -4 22 3 36 17 19 19 21 25 8 25
-9 0 -25 -8 -36 -18z m31 7 c0 -2 -8 -10 -17 -17 -16 -13 -17 -12 -4 4 13 16
21 21 21 13z"/>
<path d="M4670 600 c8 -5 18 -6 23 -3 5 3 6 -5 3 -18 -3 -13 -3 -18 0 -11 3 6
10 9 16 6 7 -4 7 0 0 13 -6 10 -21 19 -34 20 -17 2 -19 0 -8 -7z"/>
<path d="M4874 602 c4 -3 14 -7 22 -8 9 -1 13 0 10 4 -4 3 -14 7 -22 8 -9 1
-13 0 -10 -4z"/>
<path d="M1590 591 c13 -10 13 -12 0 -22 -13 -9 -13 -10 0 -6 8 2 15 10 15 17
0 7 -7 15 -15 17 -13 4 -13 3 0 -6z"/>
<path d="M1455 560 c3 -5 8 -10 11 -10 2 0 4 5 4 10 0 6 -5 10 -11 10 -5 0 -7
-4 -4 -10z"/>
<path d="M1635 561 c-3 -5 0 -13 6 -17 7 -4 9 -3 5 4 -3 5 0 13 6 15 9 4 10 6
1 6 -6 1 -14 -3 -18 -8z"/>
<path d="M1816 552 c-2 -4 4 -8 15 -8 10 0 19 4 19 8 0 4 -6 8 -14 8 -8 0 -17
-4 -20 -8z"/>
<path d="M4596 545 c-3 -8 -1 -15 4 -15 6 0 10 7 10 15 0 8 -2 15 -4 15 -2 0
-6 -7 -10 -15z"/>
<path d="M1740 545 c0 -2 6 -8 13 -14 10 -8 14 -7 14 2 0 8 -6 14 -14 14 -7 0
-13 -1 -13 -2z"/>
<path d="M4714 528 l-19 -23 23 19 c12 11 22 21 22 23 0 8 -8 2 -26 -19z"/>
<path d="M1790 530 c8 -5 20 -10 25 -10 6 0 3 5 -5 10 -8 5 -19 10 -25 10 -5
0 -3 -5 5 -10z"/>
<path d="M4673 525 c0 -8 4 -12 9 -9 5 3 6 10 3 15 -9 13 -12 11 -12 -6z"/>
<path d="M1530 519 c0 -5 5 -7 10 -4 6 3 10 8 10 11 0 2 -4 4 -10 4 -5 0 -10
-5 -10 -11z"/>
<path d="M1679 513 c-13 -16 -12 -17 4 -4 16 13 21 21 13 21 -2 0 -10 -8 -17
-17z"/>
<path d="M1836 519 c3 -5 10 -6 16 -3 7 5 9 0 6 -14 -4 -15 -2 -19 8 -15 18 7
3 36 -20 39 -9 1 -14 -2 -10 -7z"/>
<path d="M2316 521 c-3 -5 1 -11 9 -14 9 -4 12 -1 8 9 -6 16 -10 17 -17 5z"/>
<path d="M4630 526 c0 -2 7 -7 16 -10 8 -3 12 -2 9 4 -6 10 -25 14 -25 6z"/>
<path d="M2267 503 c3 -7 9 -13 13 -13 4 0 10 6 13 13 3 7 -3 13 -13 13 -10 0
-16 -6 -13 -13z"/>
<path d="M2355 511 c-3 -5 -2 -12 3 -15 5 -3 9 1 9 9 0 17 -3 19 -12 6z"/>
<path d="M4613 503 c1 -17 4 -19 14 -11 15 12 18 22 4 14 -5 -4 -11 0 -14 6
-3 7 -4 3 -4 -9z"/>
<path d="M1619 508 c-5 -18 -6 -38 -1 -34 7 8 12 36 6 36 -2 0 -4 -1 -5 -2z"/>
<path d="M1757 495 c-4 -8 -3 -16 1 -19 4 -3 9 4 9 15 2 23 -3 25 -10 4z"/>
<path d="M1815 500 c3 -5 8 -10 11 -10 2 0 4 5 4 10 0 6 -5 10 -11 10 -5 0 -7
-4 -4 -10z"/>
<path d="M1910 500 c8 -5 20 -10 25 -10 6 0 3 5 -5 10 -8 5 -19 10 -25 10 -5
0 -3 -5 5 -10z"/>
<path d="M1985 500 c-3 -5 -1 -10 4 -10 6 0 11 5 11 10 0 6 -2 10 -4 10 -3 0
-8 -4 -11 -10z"/>
<path d="M2396 493 c-6 -14 -5 -15 5 -6 7 7 10 15 7 18 -3 3 -9 -2 -12 -12z"/>
<path d="M4716 493 c-6 -14 -5 -15 5 -6 7 7 10 15 7 18 -3 3 -9 -2 -12 -12z"/>
<path d="M4750 499 c0 -5 5 -7 10 -4 6 3 10 8 10 11 0 2 -4 4 -10 4 -5 0 -10
-5 -10 -11z"/>
<path d="M2441 491 c-9 -6 -10 -11 -2 -15 6 -4 11 -4 11 0 0 4 10 -1 22 -12
l21 -19 -18 28 c-9 15 -18 27 -19 27 0 0 -7 -4 -15 -9z"/>
<path d="M1650 479 c0 -5 5 -7 10 -4 6 3 10 8 10 11 0 2 -4 4 -10 4 -5 0 -10
-5 -10 -11z"/>
<path d="M1807 479 c7 -7 15 -10 18 -7 3 3 -2 9 -12 12 -14 6 -15 5 -6 -5z"/>
<path d="M1950 480 c0 -5 5 -10 10 -10 6 0 10 5 10 10 0 6 -4 10 -10 10 -5 0
-10 -4 -10 -10z"/>
<path d="M2136 475 c-3 -8 -11 -13 -18 -11 -7 1 -10 1 -6 -1 4 -2 4 -12 1 -21
-4 -10 2 -6 14 8 18 21 23 23 37 11 9 -8 19 -12 22 -9 2 3 -6 12 -20 21 -21
14 -25 14 -30 2z"/>
<path d="M4639 473 c-13 -16 -12 -17 4 -4 16 13 21 21 13 21 -2 0 -10 -8 -17
-17z"/>
<path d="M2510 476 c0 -2 8 -10 18 -17 15 -13 16 -12 3 4 -13 16 -21 21 -21
13z"/>
<path d="M4563 470 c-13 -5 -23 -11 -23 -14 0 -7 40 6 46 15 6 10 6 10 -23 -1z"/>
<path d="M1780 466 c0 -2 8 -10 18 -17 15 -13 16 -12 3 4 -13 16 -21 21 -21
13z"/>
<path d="M1853 453 c0 -6 5 -9 11 -5 6 4 14 7 18 7 19 0 14 11 -6 11 -12 0
-23 -6 -23 -13z"/>
<path d="M1976 461 c-4 -5 3 -7 14 -4 23 6 26 13 6 13 -8 0 -17 -4 -20 -9z"/>
<path d="M2075 449 c-4 -6 -5 -12 -2 -15 2 -3 7 2 10 11 7 17 1 20 -8 4z"/>
<path d="M2192 444 c-7 -8 -8 -14 -3 -14 10 0 25 19 20 25 -2 1 -10 -3 -17
-11z"/>
<path d="M4495 451 c-3 -5 0 -13 6 -17 7 -4 9 -3 5 4 -3 6 2 13 11 15 16 4 16
5 1 6 -9 0 -19 -3 -23 -8z"/>
<path d="M1985 440 c-3 -6 1 -7 9 -4 18 7 21 14 7 14 -6 0 -13 -4 -16 -10z"/>
<path d="M2139 448 c-6 -18 -3 -46 3 -42 5 4 7 13 4 21 -5 11 -2 13 9 9 9 -3
13 -2 10 4 -5 9 -24 14 -26 8z"/>
<path d="M2635 440 c3 -5 8 -10 11 -10 2 0 4 5 4 10 0 6 -5 10 -11 10 -5 0 -7
-4 -4 -10z"/>
<path d="M2647 429 c-17 -19 -17 -19 8 -15 13 3 27 0 31 -5 3 -5 10 -7 15 -4
5 4 9 1 9 -4 0 -6 5 -11 11 -11 8 0 8 4 0 14 -9 11 -9 15 1 19 8 4 7 6 -4 6
-10 1 -18 -4 -18 -10 0 -6 -8 -2 -17 9 -18 19 -18 19 -36 1z"/>
<path d="M4470 441 c0 -6 4 -13 10 -16 6 -3 7 1 4 9 -7 18 -14 21 -14 7z"/>
<path d="M4635 439 c-3 -4 2 -6 10 -5 21 3 28 13 10 13 -9 0 -18 -4 -20 -8z"/>
<path d="M4710 439 c0 -5 5 -7 10 -4 6 3 10 8 10 11 0 2 -4 4 -10 4 -5 0 -10
-5 -10 -11z"/>
<path d="M2091 424 c0 -11 3 -14 6 -6 3 7 2 16 -1 19 -3 4 -6 -2 -5 -13z"/>
<path d="M2256 425 c-3 -8 -1 -15 4 -15 6 0 10 7 10 15 0 8 -2 15 -4 15 -2 0
-6 -7 -10 -15z"/>
<path d="M2033 423 c4 -3 1 -13 -6 -22 -11 -14 -10 -14 5 -2 16 12 16 31 1 31
-4 0 -3 -3 0 -7z"/>
<path d="M2200 420 c-8 -5 -10 -10 -5 -10 6 0 17 5 25 10 8 5 11 10 5 10 -5 0
-17 -5 -25 -10z"/>
<path d="M4440 420 c0 -6 4 -9 9 -6 5 4 12 1 14 -4 3 -6 4 -5 3 2 -3 15 -26
23 -26 8z"/>
<path d="M2797 414 c-6 -6 28 -44 40 -44 4 0 8 6 9 15 1 8 -1 13 -6 10 -5 -3
-15 1 -23 9 -8 8 -17 13 -20 10z"/>
<path d="M4390 410 c-13 -8 -12 -10 3 -10 9 0 17 5 17 10 0 12 -1 12 -20 0z"/>
<path d="M1895 400 c3 -5 8 -10 11 -10 2 0 4 5 4 10 0 6 -5 10 -11 10 -5 0 -7
-4 -4 -10z"/>
<path d="M2160 395 c-7 -8 -17 -12 -23 -8 -6 3 -7 1 -3 -5 8 -14 33 -5 40 14
7 18 2 18 -14 -1z"/>
<path d="M2215 400 c-4 -6 1 -7 12 -3 16 6 16 4 -2 -17 l-20 -24 26 20 c18 12
23 21 15 26 -15 10 -24 10 -31 -2z"/>
<path d="M4615 401 c-3 -5 -2 -12 3 -15 5 -3 9 1 9 9 0 17 -3 19 -12 6z"/>
<path d="M2105 380 c10 -11 20 -20 23 -20 3 0 -3 9 -13 20 -10 11 -20 20 -23
20 -3 0 3 -9 13 -20z"/>
<path d="M4356 385 c-3 -8 -1 -15 4 -15 6 0 10 7 10 15 0 8 -2 15 -4 15 -2 0
-6 -7 -10 -15z"/>
<path d="M2331 374 c0 -11 3 -14 6 -6 3 7 2 16 -1 19 -3 4 -6 -2 -5 -13z"/>
<path d="M2790 380 c0 -5 5 -10 10 -10 6 0 10 5 10 10 0 6 -4 10 -10 10 -5 0
-10 -4 -10 -10z"/>
<path d="M4430 380 c0 -4 7 -7 15 -6 23 3 26 12 5 13 -11 1 -20 -2 -20 -7z"/>
<path d="M4707 379 c7 -7 15 -10 18 -7 3 3 -2 9 -12 12 -14 6 -15 5 -6 -5z"/>
<path d="M2050 359 c0 -5 5 -7 10 -4 6 3 10 8 10 11 0 2 -4 4 -10 4 -5 0 -10
-5 -10 -11z"/>
<path d="M2268 363 c7 -3 16 -2 19 1 4 3 -2 6 -13 5 -11 0 -14 -3 -6 -6z"/>
<path d="M2352 360 c2 -8 -2 -14 -8 -13 -6 1 -11 -5 -11 -12 0 -10 4 -12 12
-5 7 5 14 7 18 4 3 -3 4 1 3 10 -1 8 -6 19 -10 23 -4 4 -6 1 -4 -7z"/>
<path d="M2415 361 c6 -11 4 -13 -8 -8 -10 4 -14 2 -11 -7 6 -17 32 -16 30 0
-1 8 -6 17 -11 21 -4 5 -5 2 0 -6z"/>
<path d="M4334 362 c3 -5 1 -12 -6 -14 -8 -3 -9 -6 -1 -11 6 -4 13 0 17 8 3 8
0 17 -6 21 -6 4 -8 3 -4 -4z"/>
<path d="M4392 361 c2 -17 -3 -25 -10 -15 -5 8 -14 3 -26 -15 -20 -26 -20 -26
0 -8 12 9 23 15 26 12 3 -3 12 3 21 13 14 15 14 19 3 19 -8 0 -15 -3 -14 -6z"/>
<path d="M2510 351 c0 -6 4 -13 10 -16 6 -3 7 1 4 9 -7 18 -14 21 -14 7z"/>
<path d="M3030 352 c0 -4 6 -14 13 -21 8 -10 8 -12 0 -7 -6 3 -14 3 -17 -2 -2
-4 6 -8 20 -8 27 0 29 4 10 29 -14 18 -26 22 -26 9z"/>
<path d="M2076 333 c-6 -14 -5 -15 5 -6 7 7 10 15 7 18 -3 3 -9 -2 -12 -12z"/>
<path d="M2199 333 c-13 -16 -12 -17 4 -4 16 13 21 21 13 21 -2 0 -10 -8 -17
-17z"/>
<path d="M2230 341 c0 -6 4 -13 10 -16 6 -3 7 1 4 9 -7 18 -14 21 -14 7z"/>
<path d="M2540 330 c-6 -11 -9 -20 -8 -20 2 0 11 9 21 20 9 11 13 20 7 20 -5
0 -14 -9 -20 -20z"/>
<path d="M3010 340 c0 -5 5 -10 11 -10 5 0 7 5 4 10 -3 6 -8 10 -11 10 -2 0
-4 -4 -4 -10z"/>
<path d="M4265 340 c3 -5 11 -10 16 -10 6 0 7 5 4 10 -3 6 -11 10 -16 10 -6 0
-7 -4 -4 -10z"/>
<path d="M2455 330 c-4 -6 1 -7 11 -3 13 5 15 3 9 -7 -5 -9 -4 -11 4 -6 6 4 9
12 6 17 -8 12 -22 12 -30 -1z"/>
<path d="M2556 315 c-9 -26 -7 -32 5 -12 6 10 9 21 6 23 -2 3 -7 -2 -11 -11z"/>
<path d="M2671 325 c1 -19 18 -51 18 -35 0 8 -4 22 -9 30 -5 8 -9 11 -9 5z"/>
<path d="M4290 310 c-6 -11 -8 -20 -6 -20 3 0 10 9 16 20 6 11 8 20 6 20 -3 0
-10 -9 -16 -20z"/>
<path d="M4450 319 c0 -5 5 -7 10 -4 6 3 10 8 10 11 0 2 -4 4 -10 4 -5 0 -10
-5 -10 -11z"/>
<path d="M2404 298 l-19 -23 23 19 c12 11 22 21 22 23 0 8 -8 2 -26 -19z"/>
<path d="M3156 299 c8 -8 21 -16 29 -16 8 0 13 3 10 5 -3 3 0 10 5 17 7 8 0
11 -25 11 -30 -1 -32 -2 -19 -17z"/>
<path d="M2435 301 c-3 -5 -2 -12 3 -15 5 -3 9 1 9 9 0 17 -3 19 -12 6z"/>
<path d="M2485 299 c-3 -4 2 -6 10 -5 21 3 28 13 10 13 -9 0 -18 -4 -20 -8z"/>
<path d="M2576 294 c-5 -14 -4 -15 8 -5 7 6 22 9 32 5 16 -5 16 -4 4 5 -21 15
-37 13 -44 -5z"/>
<path d="M4183 288 c-17 -22 -26 -45 -10 -26 8 10 18 14 22 10 5 -4 5 -2 2 5
-4 6 -1 14 5 16 8 4 9 6 2 6 -6 1 -16 -5 -21 -11z"/>
<path d="M3315 280 c-2 -3 4 -11 14 -17 13 -8 22 -7 36 3 10 8 17 15 14 15
-15 5 -61 4 -64 -1z"/>
<path d="M2716 271 c-3 -5 1 -11 9 -14 9 -4 12 -1 8 9 -6 16 -10 17 -17 5z"/>
<path d="M2841 274 c-1 -5 6 -19 14 -30 13 -16 14 -16 9 -1 -5 13 -2 16 12 11
15 -5 16 -4 4 4 -8 6 -17 9 -21 6 -4 -2 -10 2 -12 8 -3 7 -6 8 -6 2z"/>
<path d="M4103 261 c-7 -10 -9 -22 -6 -25 10 -10 33 -7 33 4 0 5 -8 7 -17 3
-16 -6 -16 -4 1 15 11 12 15 22 10 22 -5 0 -15 -9 -21 -19z"/>
<path d="M4142 260 c0 -14 2 -19 5 -12 2 6 2 18 0 25 -3 6 -5 1 -5 -13z"/>
<path d="M2399 268 c-5 -18 -6 -38 -1 -34 7 8 12 36 6 36 -2 0 -4 -1 -5 -2z"/>
<path d="M4210 261 c0 -6 4 -12 8 -15 5 -3 9 1 9 9 0 8 -4 15 -9 15 -4 0 -8
-4 -8 -9z"/>
<path d="M4330 259 c0 -5 5 -7 10 -4 6 3 10 8 10 11 0 2 -4 4 -10 4 -5 0 -10
-5 -10 -11z"/>
<path d="M3581 237 c-8 -12 -10 -19 -6 -15 5 4 14 3 22 -3 9 -9 13 -8 13 0 0
6 -6 11 -12 11 -10 0 -9 3 1 9 7 5 9 11 4 14 -5 3 -15 -4 -22 -16z"/>
<path d="M2639 233 c-13 -16 -12 -17 4 -4 9 7 17 15 17 17 0 8 -8 3 -21 -13z"/>
<path d="M2673 233 c0 -9 4 -10 14 -2 7 6 13 12 13 14 0 1 -6 2 -13 2 -8 0
-14 -6 -14 -14z"/>
<path d="M2713 243 c4 -3 1 -13 -6 -22 -11 -14 -10 -14 5 -2 16 12 16 31 1 31
-4 0 -3 -3 0 -7z"/>
<path d="M2754 225 c0 -28 8 -24 13 5 2 11 -1 20 -5 20 -4 0 -8 -11 -8 -25z"/>
<path d="M2916 242 c13 -4 20 -14 18 -24 -2 -14 2 -16 14 -9 10 4 24 6 32 4
13 -4 13 -3 1 5 -8 6 -20 8 -28 5 -8 -3 -13 0 -11 8 2 8 -7 14 -22 16 -22 2
-22 1 -4 -5z"/>
<path d="M3443 235 c0 -8 4 -12 9 -9 5 3 6 10 3 15 -9 13 -12 11 -12 -6z"/>
<path d="M4172 216 c-1 -15 1 -17 7 -7 5 7 14 10 20 7 6 -4 11 -3 11 2 0 5 -8
12 -18 14 -13 4 -18 -1 -20 -16z"/>
<path d="M2820 220 c-8 -5 -10 -10 -5 -10 6 0 17 5 25 10 8 5 11 10 5 10 -5 0
-17 -5 -25 -10z"/>
<path d="M2890 226 c0 -2 7 -7 16 -10 8 -3 12 -2 9 4 -6 10 -25 14 -25 6z"/>
<path d="M3060 226 c0 -2 7 -6 15 -10 8 -3 15 -1 15 4 0 6 -7 10 -15 10 -8 0
-15 -2 -15 -4z"/>
<path d="M3665 220 c4 -6 10 -9 13 -6 3 3 11 1 18 -5 8 -7 14 -7 19 1 3 5 5
10 3 11 -33 9 -59 8 -53 -1z"/>
<path d="M4072 221 c-11 -6 -10 -10 4 -15 9 -3 19 -4 22 -1 3 3 0 5 -7 5 -7 0
-9 5 -6 10 7 12 4 12 -13 1z"/>
<path d="M4227 219 c7 -7 15 -10 18 -7 3 3 -2 9 -12 12 -14 6 -15 5 -6 -5z"/>
<path d="M4280 220 c-9 -6 -10 -10 -3 -10 6 0 15 5 18 10 8 12 4 12 -15 0z"/>
<path d="M3015 200 c6 -10 4 -12 -7 -7 -16 6 -20 -17 -5 -28 4 -3 5 -2 2 2 -3
3 3 11 12 18 13 9 13 14 3 20 -9 6 -11 4 -5 -5z"/>
<path d="M3043 182 c-15 -20 -17 -29 -8 -29 8 0 13 3 13 6 -3 15 15 40 25 34
6 -3 7 -1 3 5 -10 16 -9 16 -33 -16z"/>
<path d="M3099 207 c-6 -19 -5 -38 1 -42 5 -3 7 3 5 14 -3 14 2 19 16 18 12
-1 17 -7 14 -15 -3 -7 0 -10 6 -7 16 10 5 28 -19 32 -12 1 -22 2 -23 0z"/>
<path d="M3990 200 c-13 -8 -12 -10 3 -10 9 0 17 5 17 10 0 12 -1 12 -20 0z"/>
<path d="M4031 187 c-13 -21 -12 -21 5 -5 10 10 16 20 13 22 -3 3 -11 -5 -18
-17z"/>
<path d="M2913 185 c0 -8 4 -12 9 -9 5 3 6 10 3 15 -9 13 -12 11 -12 -6z"/>
<path d="M2486 178 c3 -5 10 -6 15 -3 13 9 11 12 -6 12 -8 0 -12 -4 -9 -9z"/>
<path d="M4054 178 c-4 -5 -3 -12 0 -15 3 -4 6 -1 6 7 0 9 3 10 13 1 10 -8 14
-7 14 2 0 15 -25 18 -33 5z"/>
<path d="M3067 167 c-3 -8 1 -14 8 -14 7 0 11 6 8 14 -3 7 -6 13 -8 13 -2 0
-5 -6 -8 -13z"/>
<path d="M3190 171 c0 -5 5 -13 10 -16 6 -3 10 -2 10 4 0 5 -4 13 -10 16 -5 3
-10 2 -10 -4z"/>
<path d="M3277 174 c-4 -4 -7 -11 -7 -15 0 -9 27 -5 37 6 4 4 3 5 -4 2 -6 -4
-13 -2 -15 4 -2 5 -7 7 -11 3z"/>
<path d="M3987 146 l-16 -24 29 15 c32 16 41 27 13 16 -11 -4 -14 -3 -9 5 14
23 -2 12 -17 -12z"/>
<path d="M4105 160 c-3 -6 1 -7 9 -4 18 7 21 14 7 14 -6 0 -13 -4 -16 -10z"/>
<path d="M3133 143 c1 -15 5 -19 13 -13 6 6 14 7 17 3 4 -3 7 -1 7 6 0 7 -6
11 -14 8 -8 -3 -17 -1 -19 6 -3 7 -4 2 -4 -10z"/>
<path d="M3460 150 c0 -5 0 -13 1 -16 0 -4 -5 -11 -13 -16 -11 -8 -10 -9 1 -6
13 4 28 48 16 48 -3 0 -5 -4 -5 -10z"/>
<path d="M3743 152 c-9 -6 -7 -11 7 -20 12 -7 20 -8 20 -2 0 5 -5 10 -11 10
-5 0 -7 5 -4 10 7 12 4 12 -12 2z"/>
<path d="M3788 142 c9 -10 19 -14 21 -9 2 5 -3 13 -10 18 -24 15 -30 10 -11
-9z"/>
<path d="M3879 145 c-3 -32 -4 -36 -19 -45 -9 -6 -10 -10 -3 -10 6 0 15 6 20
13 9 15 16 57 8 57 -3 0 -6 -7 -6 -15z"/>
<path d="M2547 139 c7 -7 15 -10 18 -7 3 3 -2 9 -12 12 -14 6 -15 5 -6 -5z"/>
<path d="M2880 135 c-7 -9 -11 -17 -9 -20 3 -2 10 5 17 15 14 24 10 26 -8 5z"/>
<path d="M3216 133 c-6 -14 -5 -15 5 -6 7 7 10 15 7 18 -3 3 -9 -2 -12 -12z"/>
<path d="M3253 135 c0 -8 4 -12 9 -9 5 3 6 10 3 15 -9 13 -12 11 -12 -6z"/>
<path d="M3410 142 c0 -5 7 -9 15 -9 8 0 12 4 9 9 -7 10 -24 10 -24 0z"/>
<path d="M3481 138 c-1 -21 15 -32 25 -17 4 7 3 9 -4 5 -6 -3 -13 2 -15 11 -4
16 -5 16 -6 1z"/>
<path d="M4150 141 c0 -6 4 -12 8 -15 5 -3 9 1 9 9 0 8 -4 15 -9 15 -4 0 -8
-4 -8 -9z"/>
<path d="M3920 136 c0 -2 7 -7 16 -10 8 -3 12 -2 9 4 -6 10 -25 14 -25 6z"/>
<path d="M2914 122 c4 -3 14 -7 22 -8 9 -1 13 0 10 4 -4 3 -14 7 -22 8 -9 1
-13 0 -10 -4z"/>
<path d="M3311 114 c6 -7 7 -19 3 -26 -6 -10 -5 -11 8 -1 8 7 17 11 20 8 2 -3
5 1 5 9 0 8 -6 12 -15 8 -9 -3 -13 -1 -9 5 3 5 0 10 -8 10 -11 0 -12 -4 -4
-13z"/>
<path d="M3694 118 c-4 -5 -1 -15 5 -21 9 -9 11 -8 6 3 -4 11 1 16 15 17 18 2
19 0 5 -21 -13 -20 -13 -23 0 -23 8 0 12 4 9 9 -3 5 0 15 6 23 14 17 14 17
-18 20 -12 1 -25 -2 -28 -7z"/>
<path d="M2490 116 c0 -2 8 -10 18 -17 15 -13 16 -12 3 4 -13 16 -21 21 -21
13z"/>
<path d="M3400 109 c0 -5 -4 -8 -9 -4 -5 3 -13 0 -17 -7 -4 -7 -3 -10 1 -5 5
4 18 -1 29 -10 12 -10 16 -11 9 -4 -6 7 -9 20 -6 27 3 8 2 14 -1 14 -3 0 -6
-5 -6 -11z"/>
<path d="M3079 93 c-13 -16 -12 -17 4 -4 16 13 21 21 13 21 -2 0 -10 -8 -17
-17z"/>
<path d="M3239 93 c-13 -16 -12 -17 4 -4 16 13 21 21 13 21 -2 0 -10 -8 -17
-17z"/>
<path d="M3926 98 c3 -5 10 -6 15 -3 13 9 11 12 -6 12 -8 0 -12 -4 -9 -9z"/>
<path d="M4096 102 c-3 -5 1 -9 9 -9 8 0 12 4 9 9 -3 4 -7 8 -9 8 -2 0 -6 -4
-9 -8z"/>
<path d="M3035 89 c-4 -6 -5 -12 -2 -15 2 -3 7 2 10 11 7 17 1 20 -8 4z"/>
<path d="M3754 85 c1 -8 8 -21 16 -28 12 -10 12 -9 2 4 -6 9 -9 18 -6 21 3 3
1 9 -4 12 -6 3 -9 -1 -8 -9z"/>
<path d="M3440 80 c-9 -6 -10 -10 -3 -10 6 0 15 5 18 10 8 12 4 12 -15 0z"/>
<path d="M3555 81 c-3 -5 -2 -12 3 -15 5 -3 9 1 9 9 0 17 -3 19 -12 6z"/>
<path d="M3788 83 c6 -2 18 -2 25 0 6 3 1 5 -13 5 -14 0 -19 -2 -12 -5z"/>
<path d="M3370 76 c0 -2 8 -10 18 -17 15 -13 16 -12 3 4 -13 16 -21 21 -21 13z"/>
<path d="M3246 58 c3 -5 10 -6 15 -3 13 9 11 12 -6 12 -8 0 -12 -4 -9 -9z"/>
<path d="M3467 59 c7 -7 15 -10 18 -7 3 3 -2 9 -12 12 -14 6 -15 5 -6 -5z"/>
<path d="M3577 51 c-10 -12 -9 -13 3 -5 19 11 62 13 76 2 6 -4 11 -2 11 5 0
18 -75 17 -90 -2z"/>
<path d="M3836 58 c2 -4 14 -5 26 -3 32 7 32 13 -1 11 -16 0 -27 -4 -25 -8z"/>
<path d="M3330 39 c0 -5 5 -7 10 -4 6 3 10 8 10 11 0 2 -4 4 -10 4 -5 0 -10
-5 -10 -11z"/>
<path d="M3936 42 c-3 -5 1 -9 9 -9 8 0 12 4 9 9 -3 4 -7 8 -9 8 -2 0 -6 -4
-9 -8z"/>
<path d="M3470 19 c0 -5 5 -7 10 -4 6 3 10 8 10 11 0 2 -4 4 -10 4 -5 0 -10
-5 -10 -11z"/>
<path d="M3615 20 c3 -5 8 -10 11 -10 2 0 4 5 4 10 0 6 -5 10 -11 10 -5 0 -7
-4 -4 -10z"/>
</g>
</svg>
